<svg width="36" height="36" viewBox="0 0 36 36" fill="none" xmlns="http://www.w3.org/2000/svg">
<path d="M31.3148 10.9121H5.17734V6.55583C5.17734 5.75355 5.82714 5.10374 6.62942 5.10374H29.8628C30.665 5.10374 31.3148 5.75355 31.3148 6.55583V10.9121Z" fill="url(#paint0_linear_3_165)"/>
<path d="M5.17734 10.9121V29.7892C5.17734 30.5915 5.82714 31.2413 6.62942 31.2413H29.8628C30.665 31.2413 31.3148 30.5915 31.3148 29.7892V10.9121H5.17734Z" fill="url(#paint1_linear_3_165)"/>
<path d="M16.068 17.4464H14.6159C14.2151 17.4464 13.8898 17.1212 13.8898 16.7204V15.2683C13.8898 14.8675 14.2151 14.5423 14.6159 14.5423H16.068C16.4687 14.5423 16.794 14.8675 16.794 15.2683V16.7204C16.794 17.1212 16.4687 17.4464 16.068 17.4464Z" fill="white"/>
<path d="M21.8763 17.4464H20.4243C20.0235 17.4464 19.6982 17.1212 19.6982 16.7204V15.2683C19.6982 14.8675 20.0235 14.5423 20.4243 14.5423H21.8763C22.2771 14.5423 22.6024 14.8675 22.6024 15.2683V16.7204C22.6024 17.1212 22.2771 17.4464 21.8763 17.4464Z" fill="white"/>
<path d="M27.6846 17.4464H26.2325C25.8317 17.4464 25.5065 17.1212 25.5065 16.7204V15.2683C25.5065 14.8675 25.8317 14.5423 26.2325 14.5423H27.6846C28.0854 14.5423 28.4106 14.8675 28.4106 15.2683V16.7204C28.4106 17.1212 28.0854 17.4464 27.6846 17.4464Z" fill="white"/>
<path d="M16.068 22.5288H14.6159C14.2151 22.5288 13.8898 22.2035 13.8898 21.8027V20.3506C13.8898 19.9499 14.2151 19.6246 14.6159 19.6246H16.068C16.4687 19.6246 16.794 19.9499 16.794 20.3506V21.8027C16.794 22.2035 16.4687 22.5288 16.068 22.5288Z" fill="white"/>
<path d="M10.2596 22.5288H8.80749C8.40672 22.5288 8.08145 22.2035 8.08145 21.8027V20.3506C8.08145 19.9499 8.40672 19.6246 8.80749 19.6246H10.2596C10.6604 19.6246 10.9856 19.9499 10.9856 20.3506V21.8027C10.9856 22.2035 10.6604 22.5288 10.2596 22.5288Z" fill="white"/>
<path d="M21.8763 22.5288H20.4243C20.0235 22.5288 19.6982 22.2035 19.6982 21.8027V20.3506C19.6982 19.9499 20.0235 19.6246 20.4243 19.6246H21.8763C22.2771 19.6246 22.6024 19.9499 22.6024 20.3506V21.8027C22.6024 22.2035 22.2771 22.5288 21.8763 22.5288Z" fill="white"/>
<path d="M16.068 27.611H14.6159C14.2151 27.611 13.8898 27.2858 13.8898 26.885V25.4329C13.8898 25.0321 14.2151 24.7069 14.6159 24.7069H16.068C16.4687 24.7069 16.794 25.0321 16.794 25.4329V26.885C16.794 27.2858 16.4687 27.611 16.068 27.611Z" fill="white"/>
<path d="M10.2596 27.611H8.80749C8.40672 27.611 8.08145 27.2858 8.08145 26.885V25.4329C8.08145 25.0321 8.40672 24.7069 8.80749 24.7069H10.2596C10.6604 24.7069 10.9856 25.0321 10.9856 25.4329V26.885C10.9856 27.2858 10.6604 27.611 10.2596 27.611Z" fill="white"/>
<path d="M21.8763 27.611H20.4243C20.0235 27.611 19.6982 27.2858 19.6982 26.885V25.4329C19.6982 25.0321 20.0235 24.7069 20.4243 24.7069H21.8763C22.2771 24.7069 22.6024 25.0321 22.6024 25.4329V26.885C22.6024 27.2858 22.2771 27.611 21.8763 27.611Z" fill="white"/>
<path d="M27.6846 22.5288H26.2325C25.8317 22.5288 25.5065 22.2035 25.5065 21.8027V20.3506C25.5065 19.9499 25.8317 19.6246 26.2325 19.6246H27.6846C28.0854 19.6246 28.4106 19.9499 28.4106 20.3506V21.8027C28.4106 22.2035 28.0854 22.5288 27.6846 22.5288Z" fill="white"/>
<path opacity="0.05" d="M10.9857 5.10374V7.64489C10.9857 7.84528 10.8224 8.00791 10.6227 8.00791C10.423 8.00791 10.2597 7.84528 10.2597 7.64489V5.10374H8.80759V7.64489C8.80759 8.64538 9.62148 9.45999 10.6227 9.45999C11.6239 9.45999 12.4378 8.64538 12.4378 7.64489V5.10374H10.9857Z" fill="white"/>
<path opacity="0.07" d="M11.3486 5.10374V7.64489C11.3486 8.04494 11.0234 8.37093 10.6226 8.37093C10.2218 8.37093 9.89656 8.04494 9.89656 7.64489V5.10374H9.17052V7.64489C9.17052 8.44571 9.82178 9.09697 10.6226 9.09697C11.4234 9.09697 12.0747 8.44571 12.0747 7.64489V5.10374H11.3486Z" fill="white"/>
<path opacity="0.05" d="M26.2326 5.10374V7.64489C26.2326 7.84528 26.0692 8.00791 25.8696 8.00791C25.6699 8.00791 25.5065 7.84528 25.5065 7.64489V5.10374H24.0545V7.64489C24.0545 8.64538 24.8684 9.45999 25.8696 9.45999C26.8708 9.45999 27.6847 8.64538 27.6847 7.64489V5.10374H26.2326Z" fill="white"/>
<path opacity="0.07" d="M26.5955 5.10374V7.64489C26.5955 8.04494 26.2702 8.37093 25.8695 8.37093C25.4687 8.37093 25.1434 8.04494 25.1434 7.64489V5.10374H24.4174V7.64489C24.4174 8.44571 25.0686 9.09697 25.8695 9.09697C26.6703 9.09697 27.3216 8.44571 27.3216 7.64489V5.10374H26.5955Z" fill="white"/>
<path d="M25.8695 8.73396C25.2684 8.73396 24.7805 8.24606 24.7805 7.6449V4.01469C24.7805 3.41353 25.2684 2.92563 25.8695 2.92563C26.4707 2.92563 26.9586 3.41353 26.9586 4.01469V7.6449C26.9586 8.24606 26.4707 8.73396 25.8695 8.73396Z" fill="#54DAFF"/>
<path d="M10.6226 8.73396C10.0215 8.73396 9.53358 8.24606 9.53358 7.6449V4.01469C9.53358 3.41353 10.0215 2.92563 10.6226 2.92563C11.2238 2.92563 11.7117 3.41353 11.7117 4.01469V7.6449C11.7117 8.24606 11.2238 8.73396 10.6226 8.73396Z" fill="#54DAFF"/>
<defs>
<linearGradient id="paint0_linear_3_165" x1="17.5346" y1="3.91449" x2="19.0179" y2="13.8482" gradientUnits="userSpaceOnUse">
<stop offset="0.042" stop-color="#076DB4"/>
<stop offset="0.85" stop-color="#0461AF"/>
</linearGradient>
<linearGradient id="paint1_linear_3_165" x1="16.529" y1="5.40652" x2="20.8359" y2="42.998" gradientUnits="userSpaceOnUse">
<stop stop-color="#33BEF0"/>
<stop offset="1" stop-color="#0A85D9"/>
</linearGradient>
</defs>
</svg>
