<svg width="36" height="36" viewBox="0 0 36 36" fill="none" xmlns="http://www.w3.org/2000/svg">
<g clip-path="url(#clip0_3_117)">
<path d="M31.7219 26.6863C31.2573 26.9293 30.7781 27.1434 30.2871 27.3275C28.7242 27.9123 27.0686 28.2102 25.3999 28.2069C18.9581 28.2069 13.3467 23.7758 13.3467 18.0895C13.355 17.3269 13.5666 16.5802 13.9598 15.9267C14.353 15.2731 14.9134 14.7363 15.5834 14.3717C9.75689 14.6168 8.25943 20.6883 8.25943 24.2454C8.25943 34.3029 17.5287 35.3226 19.5258 35.3226C20.6026 35.3226 22.2267 35.0095 23.2014 34.7018L23.3797 34.6419C27.1305 33.3452 30.3281 30.8102 32.4461 27.4541C32.511 27.3519 32.54 27.231 32.5285 27.1105C32.5169 26.99 32.4656 26.8767 32.3825 26.7887C32.2994 26.7006 32.1894 26.6427 32.0698 26.6242C31.9501 26.6056 31.8277 26.6275 31.7219 26.6863Z" fill="url(#paint0_linear_3_117)"/>
<path opacity="0.35" d="M31.7219 26.6863C31.2573 26.9293 30.7781 27.1434 30.2871 27.3275C28.7242 27.9123 27.0686 28.2102 25.3999 28.2069C18.9581 28.2069 13.3467 23.7758 13.3467 18.0895C13.355 17.3269 13.5666 16.5802 13.9598 15.9267C14.353 15.2731 14.9134 14.7363 15.5834 14.3717C9.75689 14.6168 8.25943 20.6883 8.25943 24.2454C8.25943 34.3029 17.5287 35.3226 19.5258 35.3226C20.6026 35.3226 22.2267 35.0095 23.2014 34.7018L23.3797 34.6419C27.1305 33.3452 30.3281 30.8102 32.4461 27.4541C32.511 27.3519 32.54 27.231 32.5285 27.1105C32.5169 26.99 32.4656 26.8767 32.3825 26.7887C32.2994 26.7006 32.1894 26.6427 32.0698 26.6242C31.9501 26.6056 31.8277 26.6275 31.7219 26.6863Z" fill="url(#paint1_radial_3_117)"/>
<path d="M14.6591 33.6127C13.4448 32.8591 12.3926 31.8716 11.5634 30.7076C10.6183 29.4128 9.96802 27.927 9.65803 26.3542C9.34803 24.7815 9.38589 23.16 9.76893 21.6034C10.152 20.0469 10.8709 18.593 11.8754 17.3437C12.8798 16.0944 14.1454 15.08 15.5834 14.3717C16.0081 14.1715 16.7337 13.8094 17.6989 13.8271C18.3789 13.8321 19.0485 13.9944 19.6553 14.3015C20.262 14.6085 20.7894 15.0519 21.1962 15.5969C21.7459 16.3309 22.049 17.2201 22.062 18.1371C22.062 18.1085 25.3918 7.30092 11.1713 7.30092C5.1951 7.30092 0.280709 12.9722 0.280709 17.9479C0.257137 20.5799 0.820303 23.1842 1.92928 25.5713C3.74165 29.4383 6.911 32.505 10.8355 34.1892C14.76 35.8734 19.1663 36.0577 23.2177 34.7072C21.7992 35.1545 20.3005 35.2887 18.825 35.1007C17.3495 34.9127 15.9324 34.4069 14.6713 33.6181L14.6591 33.6127Z" fill="url(#paint2_linear_3_117)"/>
<path opacity="0.41" d="M14.6591 33.6127C13.4448 32.8591 12.3926 31.8716 11.5634 30.7076C10.6183 29.4128 9.96802 27.927 9.65803 26.3542C9.34803 24.7815 9.38589 23.16 9.76893 21.6034C10.152 20.0469 10.8709 18.593 11.8754 17.3437C12.8798 16.0944 14.1454 15.08 15.5834 14.3717C16.0081 14.1715 16.7337 13.8094 17.6989 13.8271C18.3789 13.8321 19.0485 13.9944 19.6553 14.3015C20.262 14.6085 20.7894 15.0519 21.1962 15.5969C21.7459 16.3309 22.049 17.2201 22.062 18.1371C22.062 18.1085 25.3918 7.30092 11.1713 7.30092C5.1951 7.30092 0.280709 12.9722 0.280709 17.9479C0.257137 20.5799 0.820303 23.1842 1.92928 25.5713C3.74165 29.4383 6.911 32.505 10.8355 34.1892C14.76 35.8734 19.1663 36.0577 23.2177 34.7072C21.7992 35.1545 20.3005 35.2887 18.825 35.1007C17.3495 34.9127 15.9324 34.4069 14.6713 33.6181L14.6591 33.6127Z" fill="url(#paint3_radial_3_117)"/>
<path d="M21.0028 21.0122C20.8925 21.1552 20.5536 21.3526 20.5536 21.7827C20.5536 22.138 20.785 22.4797 21.1961 22.767C23.1537 24.1283 26.8442 23.9486 26.8538 23.9486C28.3043 23.9451 29.7273 23.5526 30.9745 22.8119C32.2327 22.0773 33.2769 21.0265 34.0035 19.7637C34.7302 18.5009 35.1141 17.0701 35.117 15.6132C35.1524 12.5625 34.028 10.5341 33.5733 9.63561C30.6886 3.9929 24.4619 0.747498 17.6907 0.747498C13.1114 0.747045 8.71605 2.54921 5.45518 5.76422C2.19431 8.97924 0.330082 13.3487 0.265686 17.9275C0.33103 12.9532 5.27537 8.93589 11.1563 8.93589C11.6328 8.93589 14.35 8.98217 16.8739 10.3067C19.0983 11.4748 20.2636 12.8851 21.0736 14.2832C21.9149 15.7357 22.0646 17.5708 22.0646 18.3018C22.0646 19.0329 21.6916 20.1165 21.0028 21.0122Z" fill="url(#paint4_radial_3_117)"/>
<path d="M21.0028 21.0122C20.8925 21.1552 20.5536 21.3526 20.5536 21.7827C20.5536 22.138 20.785 22.4797 21.1961 22.767C23.1537 24.1283 26.8442 23.9486 26.8538 23.9486C28.3043 23.9451 29.7273 23.5526 30.9745 22.8119C32.2327 22.0773 33.2769 21.0265 34.0035 19.7637C34.7302 18.5009 35.1141 17.0701 35.117 15.6132C35.1524 12.5625 34.028 10.5341 33.5733 9.63561C30.6886 3.9929 24.4619 0.747498 17.6907 0.747498C13.1114 0.747045 8.71605 2.54921 5.45518 5.76422C2.19431 8.97924 0.330082 13.3487 0.265686 17.9275C0.33103 12.9532 5.27537 8.93589 11.1563 8.93589C11.6328 8.93589 14.35 8.98217 16.8739 10.3067C19.0983 11.4748 20.2636 12.8851 21.0736 14.2832C21.9149 15.7357 22.0646 17.5708 22.0646 18.3018C22.0646 19.0329 21.6916 20.1165 21.0028 21.0122Z" fill="url(#paint5_radial_3_117)"/>
</g>
<defs>
<linearGradient id="paint0_linear_3_117" x1="8.25943" y1="24.8499" x2="32.5373" y2="24.8499" gradientUnits="userSpaceOnUse">
<stop stop-color="#0C59A4"/>
<stop offset="1" stop-color="#114A8B"/>
</linearGradient>
<radialGradient id="paint1_radial_3_117" cx="0" cy="0" r="1" gradientUnits="userSpaceOnUse" gradientTransform="translate(21.6685 25.0412) scale(12.9843 12.3351)">
<stop offset="0.72" stop-opacity="0"/>
<stop offset="0.95" stop-opacity="0.53"/>
<stop offset="1"/>
</radialGradient>
<linearGradient id="paint2_linear_3_117" x1="21.0587" y1="14.3186" x2="5.89481" y2="30.8356" gradientUnits="userSpaceOnUse">
<stop stop-color="#1B9DE2"/>
<stop offset="0.16" stop-color="#1595DF"/>
<stop offset="0.67" stop-color="#0680D7"/>
<stop offset="1" stop-color="#0078D4"/>
</linearGradient>
<radialGradient id="paint3_radial_3_117" cx="0" cy="0" r="1" gradientUnits="userSpaceOnUse" gradientTransform="translate(9.87596 27.8391) rotate(-81.3844) scale(19.525 15.7742)">
<stop offset="0.76" stop-opacity="0"/>
<stop offset="0.95" stop-opacity="0.5"/>
<stop offset="1"/>
</radialGradient>
<radialGradient id="paint4_radial_3_117" cx="0" cy="0" r="1" gradientUnits="userSpaceOnUse" gradientTransform="translate(3.78642 7.19703) rotate(92.2906) scale(27.5794 58.7384)">
<stop stop-color="#35C1F1"/>
<stop offset="0.11" stop-color="#34C1ED"/>
<stop offset="0.23" stop-color="#2FC2DF"/>
<stop offset="0.31" stop-color="#2BC3D2"/>
<stop offset="0.67" stop-color="#36C752"/>
</radialGradient>
<radialGradient id="paint5_radial_3_117" cx="0" cy="0" r="1" gradientUnits="userSpaceOnUse" gradientTransform="translate(32.9474 11.285) rotate(73.7398) scale(13.2512 10.7758)">
<stop stop-color="#66EB6E"/>
<stop offset="1" stop-color="#66EB6E" stop-opacity="0"/>
</radialGradient>
<clipPath id="clip0_3_117">
<rect width="34.85" height="34.85" fill="white" transform="translate(0.268738 0.747498)"/>
</clipPath>
</defs>
</svg>
