<svg width="31" height="36" viewBox="0 0 31 36" fill="none" xmlns="http://www.w3.org/2000/svg">
<g clip-path="url(#clip0_3_225)">
<path fill-rule="evenodd" clip-rule="evenodd" d="M28.0671 0.74366H3.48918C1.49705 0.74366 0.761856 1.47886 0.761856 3.47191V27.5212C0.761856 27.7467 0.770951 27.9563 0.790875 28.1504C0.836229 28.5854 0.844768 29.007 1.24937 29.4869C1.28891 29.5339 1.70198 29.8413 1.70198 29.8413C1.92418 29.9503 2.07589 30.0306 2.32649 30.1314L14.429 35.2019C15.0573 35.49 15.32 35.6022 15.7763 35.5932V35.5932C15.7769 35.5932 15.7775 35.5932 15.7781 35.5932C15.7787 35.5932 15.7793 35.5932 15.7799 35.5932V35.5932C16.2362 35.6022 16.4989 35.49 17.1273 35.2019L29.2297 30.1314C29.4804 30.0306 29.632 29.9503 29.8543 29.8413C29.8543 29.8413 30.2673 29.5339 30.3068 29.4869C30.7114 29.007 30.72 28.5854 30.7653 28.1504C30.7852 27.9563 30.7944 27.7467 30.7944 27.5212V3.47191C30.7944 1.47886 30.0591 0.74366 28.0671 0.74366Z" fill="#2F2D2E"/>
<path d="M26.4208 24.9221L26.4153 24.9776L26.4098 25.0386L26.3986 25.0941L26.382 25.1495L26.3713 25.1995L26.3546 25.255L26.3324 25.3049L26.3102 25.3493L26.2884 25.3992L26.2606 25.4436L26.2329 25.488L26.1999 25.5324L26.1722 25.5767L26.1392 25.6155L26.1004 25.6544L26.0674 25.6877L26.0231 25.7265L25.9846 25.7598L25.9402 25.7931L25.8961 25.8204L25.8521 25.8537L25.8022 25.8815L25.7525 25.9037L25.703 25.9314L25.6475 25.9536L25.5923 25.9758L25.5372 25.9924L25.4821 26.0091L25.4321 26.0257L25.377 26.0368L25.3274 26.0479L25.2778 26.059L25.2223 26.0701L25.1671 26.0756L25.1176 26.0812L25.0621 26.0868L25.0014 26.0923L24.9462 26.0978H24.8911H24.8304H24.7694H24.7143L24.6591 26.0923H24.5984L24.5432 26.0868L24.4878 26.0812L24.4271 26.0756L24.372 26.0645L24.3168 26.059L24.2613 26.0479L24.2062 26.0368L24.151 26.0257L24.0959 26.0146L24.0404 25.998L23.9908 25.9869L23.9357 25.9702L23.8805 25.9536L23.8306 25.9314L23.7755 25.9147L23.7259 25.8982L23.6707 25.876L23.6208 25.8537L23.5712 25.8315L23.5216 25.8042L23.4717 25.782L23.4221 25.7542L23.378 25.7265L23.3281 25.6987L23.284 25.671L23.2397 25.6433L23.1956 25.61L23.1516 25.5767L23.1072 25.5434L23.0631 25.5101L23.0243 25.4769L22.9802 25.4381L23.0135 25.3937L23.052 25.3548L23.0853 25.3104L23.1238 25.266L23.1571 25.2273L23.19 25.1829L23.2289 25.1385L23.2618 25.0997L23.3007 25.0553L23.3337 25.0164L23.3724 24.9721L23.4054 24.9277L23.4387 24.8889L23.4772 24.8445L23.5105 24.8001L23.549 24.7613L23.5823 24.7169L23.6263 24.7502L23.6759 24.7835L23.7203 24.8168L23.7699 24.8501L23.8143 24.8778L23.8639 24.911L23.9079 24.9388L23.9579 24.9609L24.0019 24.9887L24.0515 25.0109L24.1015 25.0331L24.151 25.0553L24.2007 25.0719L24.2506 25.0941L24.3057 25.1107L24.3609 25.1274L24.4105 25.144L24.466 25.1552L24.5211 25.1662L24.5762 25.1773L24.6369 25.1829L24.6924 25.194H24.7476L24.8082 25.1995H24.8634H24.9296L24.9903 25.194L25.0458 25.1829L25.0954 25.1718L25.145 25.1607L25.1893 25.144L25.2279 25.1219L25.2723 25.0886L25.3052 25.0497L25.3274 25.0053L25.3441 24.9554L25.3495 24.8999V24.8889L25.3441 24.8223L25.3219 24.7668L25.2941 24.728L25.2556 24.6947L25.2112 24.6614L25.1671 24.6393L25.1176 24.617L25.0621 24.5948L24.9959 24.5672L24.9573 24.556L24.9133 24.545L24.8634 24.5282L24.8138 24.5172L24.7586 24.5005L24.7031 24.4895L24.6425 24.4728L24.5873 24.4617L24.5266 24.4451L24.4715 24.434L24.416 24.4174L24.3609 24.4062L24.3057 24.3896L24.2558 24.373L24.2007 24.3619L24.151 24.3452L24.1015 24.3286L24.0515 24.3119L23.9908 24.2897L23.9357 24.2675L23.8805 24.2454L23.8251 24.2231L23.7755 24.1954L23.7203 24.1677L23.6759 24.14L23.6263 24.1123L23.5823 24.079L23.5379 24.0513L23.4994 24.0179L23.4606 23.9791L23.4221 23.9403L23.3888 23.9014L23.3559 23.8626L23.3281 23.8238L23.3007 23.7794L23.273 23.7295L23.2507 23.691L23.2341 23.6466L23.2178 23.5967L23.2012 23.5523L23.19 23.4968L23.179 23.4469L23.1734 23.3914L23.1679 23.3359L23.1623 23.275V23.2139V23.2028V23.1473L23.1679 23.0919L23.1734 23.0419L23.179 22.9864L23.19 22.9366L23.2012 22.8866L23.2178 22.8366L23.2289 22.7868L23.2507 22.7368L23.273 22.6869L23.2951 22.637L23.3226 22.587L23.3502 22.5372L23.3832 22.4927L23.4166 22.4484L23.4551 22.404L23.4938 22.3652L23.5324 22.3208L23.5768 22.2819L23.6152 22.2542L23.6596 22.2209L23.7037 22.1876L23.7477 22.1599L23.7977 22.1322L23.8473 22.11L23.8968 22.0823L23.9468 22.0601L24.0019 22.0434L24.057 22.0213L24.107 22.0046L24.151 21.9935L24.2007 21.9824L24.2506 21.9713L24.3057 21.9602L24.3553 21.9491L24.4105 21.9436L24.466 21.938L24.5211 21.9325L24.5762 21.927H24.6314H24.6924H24.7531H24.8138L24.8745 21.9325L24.9352 21.938H24.9903L25.0513 21.9436L25.1064 21.9547L25.1671 21.9602L25.2223 21.9713L25.2723 21.9824L25.3274 21.9935L25.3825 22.0046L25.4321 22.0157L25.4876 22.0323L25.5372 22.049L25.5868 22.0601L25.6423 22.0823L25.6919 22.0989L25.7415 22.1211L25.7911 22.1433L25.8465 22.1655L25.8961 22.1932L25.9402 22.2154L25.9901 22.2431L26.0398 22.2709L26.0838 22.2986L26.1337 22.3319L26.1778 22.3596L26.2222 22.3929L26.2662 22.4262L26.3102 22.4595L26.2773 22.5039L26.2496 22.5482L26.2166 22.5926L26.1833 22.637L26.1504 22.6869L26.1226 22.7313L26.0893 22.7757L26.0563 22.8201L26.0287 22.8644L25.9956 22.9089L25.9624 22.9532L25.9346 22.9976L25.9017 23.0475L25.8684 23.0919L25.8354 23.1362L25.8077 23.1806L25.7747 23.225L25.7304 23.1917L25.6808 23.164L25.6367 23.1362L25.5923 23.103L25.5428 23.0808L25.4983 23.053L25.4488 23.0308L25.4047 23.0087L25.3548 22.9864L25.3107 22.9643L25.2612 22.9477L25.2168 22.9254L25.1561 22.9089L25.1009 22.8921L25.0458 22.8756L24.9903 22.8644L24.9352 22.8534L24.88 22.8422L24.8249 22.8366L24.7694 22.8311L24.7198 22.8256H24.6646H24.5984L24.5377 22.8366L24.4822 22.8478L24.4327 22.8589L24.3886 22.8811L24.3498 22.9032L24.3001 22.9477L24.2668 22.9976L24.2451 23.0475L24.2394 23.103V23.1141L24.2451 23.1862L24.2724 23.2472L24.2946 23.2805L24.3331 23.3193L24.3831 23.3471L24.4271 23.3748L24.4822 23.397L24.5432 23.4192L24.6095 23.4414L24.6536 23.4524L24.6976 23.4691L24.7476 23.4801L24.7971 23.4968L24.8522 23.5079L24.9133 23.5246L24.974 23.5412L25.0347 23.5579L25.0954 23.5689L25.1505 23.5856L25.2112 23.6022L25.2667 23.6133L25.3219 23.6299L25.377 23.6466L25.4266 23.6632L25.4821 23.6799L25.5317 23.6965L25.5813 23.7132L25.6423 23.735L25.6974 23.7628L25.7525 23.7849L25.8077 23.8127L25.8577 23.8404L25.9073 23.8682L25.9513 23.8959L25.9956 23.9292L26.0398 23.9569L26.0838 23.9958L26.1282 24.0345L26.1667 24.079L26.2055 24.1178L26.2384 24.1622L26.2717 24.2121L26.2991 24.2564L26.3269 24.3064L26.3491 24.3508L26.3657 24.4007L26.382 24.4506L26.3931 24.5005L26.4042 24.556L26.4153 24.6115L26.4208 24.667L26.4264 24.728V24.789V24.8001V24.8611L26.4208 24.9221ZM22.5478 26.0313H22.4924H22.4373H22.3821H22.327H22.2715H22.2163H22.1612H22.1061H22.045H21.9899H21.9348H21.8797H21.8241H21.769H21.7138H21.6587H21.6032H21.5481H21.4929H21.4378H21.3826H21.3272H21.272H21.2169H21.1617H21.1062H21.0511H20.996H20.9353H20.8798H20.8246H20.7695H20.7144H20.6589H20.6037H20.5486H20.4934H20.438H20.3828H20.3277H20.2725H20.217H20.1619H20.1067H20.0516H19.9962H19.941H19.8803H19.8252H19.77H19.7145H19.6594H19.6042H19.5491H19.4937H19.4385H19.3834V25.9758V25.9203V25.8649V25.8097V25.7542V25.6987V25.6433V25.5879V25.5324V25.4769V25.4214V25.3659V25.3104V25.255V25.1995V25.144V25.0886V25.0331V24.9832V24.9277V24.8722V24.8168V24.7613V24.7058V24.6503V24.5948V24.5393V24.4839V24.4284V24.373V24.3175V24.262V24.2066V24.1511V24.0956V24.0401V23.9846V23.9292V23.8737V23.8182V23.7628V23.7076V23.6522V23.5967V23.5412V23.4857V23.4303V23.3748V23.3193V23.2638V23.2083V23.1529V23.0974V23.0419V22.992V22.9366V22.8811V22.8256V22.7701V22.7146V22.6592V22.6037V22.5482V22.4927V22.4373V22.3818V22.3263V22.2709V22.2154V22.1599V22.1045V22.049V21.9935H19.4385H19.4937H19.5491H19.6042H19.6594H19.7145H19.77H19.8252H19.8803H19.9355H19.9909H20.0461H20.1012H20.1564H20.2062H20.2614H20.3166H20.3718H20.4272H20.4823H20.5375H20.5927H20.6481H20.7032H20.7584H20.8135H20.869H20.9242H20.9793H21.0344H21.0899H21.1451H21.2002H21.2553H21.3105H21.366H21.4212H21.4763H21.5314H21.5869H21.6421H21.6972H21.7523H21.8023H21.8574H21.9126H21.9678H22.0232H22.0783H22.1335H22.1886H22.2441H22.2992H22.3544H22.4095H22.465H22.5202H22.5753V22.049V22.0989V22.1544V22.2099V22.2653V22.3152V22.3707V22.4262V22.4761V22.5316V22.587V22.637V22.6925V22.7479V22.8034V22.8534V22.9089H22.5202H22.465H22.4095H22.3544H22.2992H22.2441H22.1942H22.139H22.0839H22.0287H21.9733H21.9181H21.8629H21.8078H21.7523H21.6972H21.6421H21.5869H21.5314H21.4819H21.4267H21.3715H21.316H21.261H21.2058H21.1506H21.0951H21.04H20.9849H20.9297H20.8742H20.8191H20.7695H20.7144H20.6589H20.6037H20.5486H20.4934H20.438V22.9643V23.0197V23.0752V23.1307V23.1862V23.2361V23.2916V23.3471V23.4025V23.458V23.5134V23.5689H20.4934H20.5486H20.6037H20.6589H20.7144H20.7695H20.8246H20.8798H20.9297H20.9849H21.04H21.0951H21.1506H21.2058H21.261H21.316H21.3715H21.4267H21.4819H21.537H21.5924H21.6476H21.7028H21.7579H21.8134H21.8685H21.9181H21.9733H22.0287H22.0839H22.139H22.1942H22.2496H22.3048H22.3599V23.6244V23.6743V23.7295V23.7849V23.8349V23.8903V23.9458V23.9958V24.0513V24.1067V24.1622V24.2121V24.2675V24.323V24.373V24.4284H22.3048H22.2496H22.1942H22.139H22.0839H22.0287H21.9733H21.9181H21.8685H21.8134H21.7579H21.7028H21.6476H21.5924H21.537H21.4819H21.4267H21.3715H21.316H21.261H21.2058H21.1506H21.0951H21.04H20.9849H20.9297H20.8798H20.8246H20.7695H20.7144H20.6589H20.6037H20.5486H20.4934H20.438V24.4839V24.545V24.6004V24.6559V24.7169V24.7724V24.8278V24.8889V24.9443V24.9998V25.0608V25.1162H20.4934H20.5486H20.6037H20.6589H20.7144H20.7695H20.8246H20.8798H20.9353H20.996H21.0511H21.1062H21.1617H21.2169H21.272H21.3272H21.3826H21.4378H21.4929H21.5481H21.6032H21.6587H21.7138H21.769H21.8241H21.8797H21.9348H21.9899H22.045H22.1061H22.1612H22.2163H22.2715H22.327H22.3821H22.4373H22.4924H22.5478H22.603V25.1718V25.2217V25.2772V25.3326V25.3881V25.4381V25.4935V25.5489V25.5989V25.6544V25.7098V25.7598V25.8149V25.8704V25.9258V25.9758V26.0313H22.5478ZM18.5127 26.0313H18.4576H18.4024H18.3415H18.2863H18.2311H18.176H18.1205H18.0654H18.0047H17.9495H17.8943H17.8389H17.7838H17.7286H17.6679H17.6124H17.5573H17.5021V25.9758V25.9203V25.8649V25.8094V25.7536V25.6981V25.6426V25.5871V25.5317V25.4762V25.4207V25.365V25.3095V25.254V25.1985V25.143V25.0872V25.0317V24.9763V24.9208V24.8653V24.8099V24.7541V24.6987V24.6432V24.5876V24.5322V24.4767V24.4209V24.3654V24.31V24.2545V24.1991V24.1436V24.0878V24.0323V23.9768V23.9214V23.8659V23.8101V23.7546V23.6991V23.6436L17.4745 23.688L17.4415 23.7383L17.4137 23.7827L17.3808 23.8271L17.3531 23.877L17.3197 23.9214L17.2924 23.9657L17.2646 24.016L17.2317 24.0604L17.2039 24.1047L17.1707 24.1491L17.1432 24.1994L17.11 24.2437L17.0825 24.2881L17.0548 24.338L17.0215 24.3827L16.9941 24.4271L16.9608 24.477L16.9334 24.5214L16.9001 24.5658L16.8727 24.6161L16.8449 24.6605L16.8117 24.7048L16.7843 24.7548L16.751 24.7994L16.7236 24.8438L16.6903 24.8882L16.6625 24.9381L16.6351 24.9828L16.6019 25.0272L16.5745 25.0771L16.5412 25.1215L16.5135 25.1659L16.4805 25.2162L16.4528 25.2605H16.4309L16.3977 25.2106L16.3699 25.1659L16.3369 25.1159L16.3092 25.0716L16.2762 25.0217L16.2485 24.977L16.2156 24.927L16.1878 24.8826L16.1545 24.8327L16.1271 24.7884L16.0938 24.7381L16.0664 24.6937L16.0331 24.6438L16.0054 24.5994L15.9724 24.5492L15.9447 24.5048L15.9118 24.4549L15.8785 24.4105L15.8507 24.3603L15.8178 24.3159L15.79 24.266L15.7571 24.2216L15.7293 24.1713L15.6964 24.1269L15.6686 24.077L15.6354 24.0326L15.6079 23.9827L15.5747 23.938L15.5472 23.8881L15.514 23.8437L15.4862 23.7937L15.4533 23.7494L15.4255 23.6991L15.3926 23.6548V23.7102V23.7657V23.8212V23.877V23.9325V23.9879V24.0434V24.0989V24.1546V24.2101V24.2601V24.3155V24.371V24.4265V24.4823V24.5378V24.5932V24.6487V24.7042V24.7597V24.8154V24.8709V24.9264V24.9819V25.0374V25.0928V25.1486V25.204V25.2596V25.315V25.3705V25.4262V25.4762V25.5317V25.5871V25.6426V25.6981V25.7536V25.8094V25.8649V25.9203V25.9758V26.0313H15.3374H15.282H15.2268H15.1717H15.1165H15.0611H15.0059H14.9508H14.8956H14.8401H14.785H14.7298H14.6747H14.6192H14.5641H14.5089H14.4537H14.3983H14.3432V25.9758V25.9203V25.8649V25.8097V25.7542V25.6987V25.6433V25.5879V25.5324V25.4769V25.4214V25.3659V25.3104V25.255V25.1995V25.144V25.0886V25.0331V24.9832V24.9277V24.8722V24.8168V24.7613V24.7058V24.6503V24.5948V24.5393V24.4839V24.4284V24.373V24.3175V24.262V24.2066V24.1511V24.0956V24.0401V23.9846V23.9292V23.8737V23.8182V23.7628V23.7076V23.6522V23.5967V23.5412V23.4857V23.4303V23.3748V23.3193V23.2638V23.2083V23.1529V23.0974V23.0419V22.992V22.9366V22.8811V22.8256V22.7701V22.7146V22.6592V22.6037V22.5482V22.4927V22.4373V22.3818V22.3263V22.2709V22.2154V22.1599V22.1045V22.049V21.9935H14.3983H14.4537H14.5034H14.5585H14.6137H14.6691H14.7187H14.7739H14.8294H14.8845H14.9341H14.9893H15.0448H15.0999H15.1495H15.2046H15.2601H15.3153H15.3648H15.42H15.4755L15.5029 22.0379L15.5306 22.0878L15.5635 22.1318L15.5913 22.1818L15.619 22.2261L15.6464 22.2761L15.6741 22.3201L15.7072 22.3701L15.7348 22.4145L15.7626 22.4588L15.79 22.5084L15.8178 22.5528L15.8507 22.6027L15.8785 22.6471L15.9062 22.6967L15.9336 22.7411L15.9669 22.7854L15.9947 22.8351L16.022 22.8794L16.0497 22.9293L16.0772 22.9738L16.1105 23.0233L16.1382 23.0678L16.1656 23.1176L16.1933 23.1617L16.2208 23.206L16.254 23.256L16.2818 23.3004L16.3092 23.3503L16.3369 23.3944L16.3643 23.4443L16.3977 23.4887L16.4254 23.5382L16.4528 23.5827L16.4805 23.5382L16.5082 23.4887L16.5412 23.4443L16.5689 23.3944L16.5963 23.3503L16.6241 23.3004L16.657 23.256L16.6848 23.206L16.7125 23.1617L16.7399 23.1176L16.7732 23.0678L16.8006 23.0233L16.8284 22.9738L16.856 22.9293L16.889 22.8794L16.9167 22.8351L16.9445 22.7854L16.9719 22.7411L16.9997 22.6967L17.0326 22.6471L17.0603 22.6027L17.0881 22.5528L17.1155 22.5084L17.1488 22.4588L17.1762 22.4145L17.2039 22.3701L17.2317 22.3201L17.2646 22.2761L17.2924 22.2261L17.3197 22.1818L17.3475 22.1318L17.3808 22.0878L17.4082 22.0379L17.4359 21.9935H17.491H17.5462H17.5961H17.6513H17.7064H17.7616H17.8115H17.8667H17.9218H17.977H18.0269H18.082H18.1371H18.1923H18.2422H18.2974H18.3525H18.4077H18.4576H18.5127H18.5679V22.049V22.1045V22.1599V22.2154V22.2709V22.3263V22.3818V22.4373V22.4927V22.5482V22.6037V22.6592V22.7146V22.7701V22.8256V22.8811V22.9366V22.992V23.0419V23.0974V23.1529V23.2083V23.2638V23.3193V23.3748V23.4303V23.4857V23.5412V23.5967V23.6522V23.7076V23.7628V23.8182V23.8737V23.9292V23.9846V24.0401V24.0956V24.1511V24.2066V24.262V24.3175V24.373V24.4284V24.4839V24.5393V24.5948V24.6503V24.7058V24.7613V24.8168V24.8722V24.9277V24.9832V25.0331V25.0886V25.144V25.1995V25.255V25.3104V25.3659V25.4214V25.4769V25.5324V25.5879V25.6433V25.6987V25.7542V25.8097V25.8649V25.9203V25.9758V26.0313H18.5127ZM12.105 24.3674L12.0884 24.3172L12.0665 24.2617L12.0443 24.2118L12.0277 24.1615L12.0058 24.1116L11.9837 24.0561L11.967 24.0058L11.9448 23.9559L11.923 23.906L11.9063 23.8558L11.8841 23.8003L11.8678 23.7504L11.8456 23.7001L11.8234 23.6502L11.8068 23.6002L11.7849 23.5445L11.7627 23.4945L11.7461 23.4446L11.7239 23.3944L11.702 23.3389L11.6854 23.2886L11.6632 23.2387L11.6413 23.2886L11.6247 23.3389L11.6025 23.3944L11.5803 23.4446L11.564 23.4945L11.5418 23.5445L11.5196 23.6002L11.4978 23.6502L11.4811 23.7001L11.4589 23.7504L11.4367 23.8003L11.4204 23.8558L11.3982 23.906L11.376 23.9559L11.3594 24.0058L11.3375 24.0561L11.3153 24.1116L11.2932 24.1615L11.2769 24.2118L11.2547 24.2617L11.2325 24.3172L11.2158 24.3674L11.194 24.4174H11.2491H11.3042H11.3594H11.4149H11.47H11.5251H11.5803H11.6358H11.6854H11.7405H11.796H11.8511H11.9063H11.9615H12.0166H12.072H12.1272L12.105 24.3674ZM13.8394 26.0313H13.7839H13.7342H13.6792H13.6237H13.5685H13.5134H13.4638H13.4083H13.3532H13.298H13.2428H13.1874H13.1378H13.0826H13.0274H12.972H12.9169H12.8673H12.8121H12.7567L12.7348 25.9813L12.7181 25.9314L12.696 25.8815L12.6738 25.826L12.6574 25.7764L12.6353 25.7265L12.6131 25.6766L12.5967 25.6267L12.5746 25.5767L12.5524 25.5268L12.5358 25.4769L12.5139 25.4214L12.4917 25.3715L12.475 25.3215L12.4528 25.2716H12.3977H12.3426H12.2874H12.2323H12.1824H12.1272H12.072H12.0166H11.9615H11.9063H11.8511H11.796H11.7405H11.6854H11.6358H11.5803H11.5251H11.47H11.4149H11.3594H11.3042H11.2491H11.194H11.1388H11.0888H11.0338H10.9786H10.9231H10.8679L10.8461 25.3215L10.8295 25.3715L10.8073 25.4214L10.7851 25.4769L10.7688 25.5268L10.7466 25.5767L10.7244 25.6267L10.7078 25.6766L10.6859 25.7265L10.6637 25.7764L10.6471 25.826L10.6252 25.8815L10.603 25.9314L10.5864 25.9813L10.5641 26.0313H10.509H10.4539H10.3988H10.3433H10.2881H10.2274H10.1723H10.1171H10.0617H10.0065H9.9514H9.8962H9.8407H9.78563H9.7305H9.6698H9.6143H9.55917H9.50398H9.44885L9.47069 25.9813L9.4929 25.9314L9.51505 25.8815L9.53696 25.826L9.5536 25.7764L9.57581 25.7265L9.59797 25.6766L9.61981 25.6267L9.64202 25.5767L9.66423 25.5212L9.68608 25.4713L9.70829 25.4214L9.72487 25.3715L9.74708 25.3215L9.76893 25.2716L9.79114 25.2162L9.81329 25.1662L9.8352 25.1162L9.85741 25.0664L9.87956 25.0164L9.8962 24.9665L9.91805 24.911L9.94026 24.8611L9.96247 24.8112L9.98431 24.7613L10.0065 24.7113L10.0287 24.6614L10.0506 24.6059L10.0672 24.556L10.0894 24.5061L10.1116 24.4562L10.1335 24.4062L10.1556 24.3563L10.1778 24.3009L10.1997 24.2509L10.2219 24.201L10.2385 24.1511L10.2607 24.1012L10.2826 24.0513L10.3048 23.9958L10.327 23.9458L10.3488 23.8959L10.371 23.846L10.3932 23.7961L10.4098 23.7461L10.4317 23.6965L10.4539 23.641L10.476 23.5912L10.4979 23.5412L10.5201 23.4912L10.5423 23.4414L10.5641 23.3914L10.5808 23.3359L10.603 23.286L10.6252 23.2361L10.6471 23.1862L10.6693 23.1362L10.6914 23.0863L10.7133 23.0308L10.7355 22.9809L10.7521 22.931L10.7743 22.8811L10.7962 22.8311L10.8183 22.7812L10.8405 22.7258L10.8624 22.6758L10.8846 22.6259L10.9068 22.576L10.9231 22.5261L10.9453 22.4761L10.9675 22.4207L10.9897 22.3707L11.0116 22.3208L11.0338 22.2709L11.0559 22.2209L11.0778 22.1711L11.0945 22.1156L11.1166 22.0656L11.1388 22.0157L11.1607 21.9658H11.2158H11.2657H11.3209H11.376H11.4315H11.4811H11.5362H11.5914H11.6469H11.6965H11.7516H11.8068H11.8622H11.9118H11.967H12.0221H12.0776H12.1272H12.1824L12.2045 22.0157L12.2267 22.0656L12.2486 22.1156L12.2708 22.1711L12.2874 22.2209L12.3093 22.2709L12.3315 22.3208L12.3536 22.3707L12.3758 22.4207L12.3977 22.4761L12.4199 22.5261L12.4421 22.576L12.4584 22.6259L12.4806 22.6758L12.5028 22.7258L12.525 22.7812L12.5469 22.8311L12.569 22.8811L12.5912 22.931L12.6131 22.9809L12.6297 23.0308L12.6519 23.0863L12.6738 23.1362L12.696 23.1862L12.7181 23.2361L12.7403 23.286L12.7622 23.3359L12.7843 23.3914L12.801 23.4414L12.8229 23.4912L12.845 23.5412L12.8673 23.5912L12.8895 23.641L12.9113 23.6965L12.9335 23.7461L12.9557 23.7961L12.972 23.846L12.9942 23.8959L13.0164 23.9458L13.0383 23.9958L13.0604 24.0513L13.0826 24.1012L13.1049 24.1511L13.1267 24.201L13.1433 24.2509L13.1655 24.3009L13.1874 24.3563L13.2095 24.4062L13.2318 24.4562L13.2539 24.5061L13.2758 24.556L13.298 24.6059L13.3146 24.6614L13.3365 24.7113L13.3587 24.7613L13.3809 24.8112L13.4027 24.8611L13.4249 24.911L13.4471 24.9665L13.4694 25.0164L13.4856 25.0664L13.5078 25.1162L13.5301 25.1662L13.5519 25.2162L13.5741 25.2716L13.5963 25.3215L13.6184 25.3715L13.6403 25.4214L13.657 25.4713L13.6792 25.5212L13.701 25.5767L13.7232 25.6267L13.7453 25.6766L13.7672 25.7265L13.7894 25.7764L13.8116 25.826L13.8283 25.8815L13.8501 25.9314L13.8723 25.9813L13.8944 26.0313H13.8394ZM9.00118 25.5157L8.95682 25.5489L8.91827 25.5767L8.87391 25.61L8.82985 25.6377L8.7858 25.671L8.74143 25.6987L8.69738 25.7265L8.64744 25.7542L8.59782 25.782L8.54819 25.8097L8.49832 25.8315L8.4487 25.8593L8.39357 25.8815L8.34401 25.9037L8.28851 25.9258L8.23894 25.948L8.18926 25.9647L8.13939 25.9813L8.08976 25.998L8.03463 26.0146L7.98507 26.0313L7.92957 26.0424L7.87995 26.0535L7.82482 26.0645L7.76938 26.0756L7.71418 26.0812L7.65348 26.0868L7.59835 26.0923L7.53765 26.0978L7.48215 26.1034L7.42151 26.1089H7.36082H7.30005H7.23942H7.18391L7.12879 26.1034L7.06808 26.0978L7.01295 26.0923L6.95782 26.0868L6.90232 26.0812L6.84719 26.0701L6.792 26.059L6.74244 26.0479L6.687 26.0368L6.63737 26.0202L6.58224 26.0091L6.53231 25.9924L6.48269 25.9702L6.43306 25.9536L6.37799 25.9314L6.32806 25.9092L6.27844 25.8871L6.22888 25.8649L6.17888 25.8372L6.13489 25.8097L6.08526 25.782L6.0409 25.7542L5.99684 25.7265L5.95248 25.6932L5.90842 25.6599L5.86431 25.6267L5.82551 25.5934L5.78702 25.5601L5.74817 25.5212L5.70968 25.488L5.67082 25.4491L5.63234 25.4103L5.59905 25.3715L5.56607 25.3271L5.53278 25.2883L5.50506 25.2439L5.47208 25.1995L5.44442 25.1552L5.41695 25.1107L5.38923 25.0608L5.36151 25.0164L5.33967 24.9665L5.31746 24.9166L5.2953 24.8666L5.2734 24.8168L5.25676 24.7724L5.23454 24.7224L5.22347 24.6725L5.20713 24.6226L5.19606 24.5672L5.17941 24.5172L5.16834 24.4617L5.16277 24.4118L5.15163 24.3563L5.14619 24.3064L5.14056 24.2509L5.13536 24.1954L5.12985 24.14V24.079V24.0235V24.0124V23.9569L5.13536 23.8959V23.8404L5.14056 23.7849L5.14619 23.7239L5.15726 23.6688L5.16277 23.6133L5.17385 23.5634L5.19049 23.5079L5.20163 23.4524L5.2179 23.4025L5.23454 23.3471L5.25119 23.2971L5.2734 23.2416L5.2953 23.1917L5.31746 23.1418L5.33967 23.0919L5.36151 23.0419L5.38923 22.992L5.41695 22.9477L5.44442 22.9032L5.47208 22.8589L5.49986 22.8145L5.53278 22.7701L5.56607 22.7258L5.59905 22.6814L5.63234 22.6425L5.67082 22.6037L5.70411 22.5648L5.74266 22.5261L5.78146 22.4872L5.81994 22.454L5.86431 22.4151L5.90286 22.3818L5.94691 22.3485L5.99128 22.3208L6.03533 22.2875L6.07976 22.2598L6.12375 22.2321L6.17337 22.2043L6.22331 22.1766L6.27287 22.1488L6.32249 22.1266L6.37236 22.1045L6.42756 22.0767L6.47161 22.0601L6.52674 22.0434L6.57673 22.0213L6.6263 22.0101L6.67586 21.9935L6.7313 21.9824L6.78092 21.9658L6.83605 21.9547L6.89125 21.9491L6.94669 21.938L7.00188 21.9325L7.05695 21.927L7.11214 21.9214L7.16764 21.9158H7.22834H7.28347H7.34411H7.40481L7.46588 21.9214L7.52658 21.927H7.58171L7.63684 21.9325L7.69754 21.9436L7.74747 21.9491L7.8026 21.9602L7.85779 21.9713L7.90767 21.9824L7.95723 21.9935L8.00691 22.0046L8.05685 22.0213L8.10641 22.0323L8.15046 22.049L8.2004 22.0656L8.25002 22.0878L8.29958 22.11L8.34951 22.1322L8.39914 22.1599L8.4487 22.1821L8.49313 22.2099L8.54269 22.2376L8.58674 22.2653L8.63668 22.2931L8.68073 22.3263L8.72479 22.3541L8.76915 22.3874L8.81321 22.4207L8.85757 22.4595L8.90163 22.4927L8.86834 22.5372L8.82985 22.576L8.79656 22.6203L8.75807 22.6647L8.72479 22.7091L8.69181 22.7479L8.65295 22.7923L8.62003 22.8366L8.58674 22.8756L8.54819 22.9199L8.51497 22.9643L8.47642 23.0087L8.44313 23.0475L8.41021 23.0919L8.37142 23.1362L8.33838 23.1806L8.29958 23.2195L8.2666 23.2638L8.22224 23.2305L8.17818 23.1917L8.13382 23.164L8.08976 23.1307L8.04571 23.103L8.00135 23.0752L7.95723 23.0475L7.90767 23.0197L7.8633 22.9976L7.81925 22.9754L7.77488 22.9587L7.72526 22.9421L7.6757 22.9254L7.62576 22.9144L7.57063 22.9032L7.5155 22.8921L7.46031 22.8866L7.39961 22.8811L7.3386 22.8756H7.2779H7.22277L7.16764 22.8811L7.11771 22.8866L7.06258 22.8977L7.01295 22.9089L6.96302 22.9254L6.91346 22.9421L6.86384 22.9643L6.81421 22.9864L6.76985 23.0142L6.72585 23.0419L6.68143 23.0697L6.64294 23.103L6.60408 23.1362L6.5656 23.1695L6.53231 23.2083L6.49382 23.2472L6.46053 23.2916L6.43306 23.3304L6.40534 23.3748L6.37799 23.4247L6.35021 23.4691L6.32806 23.519L6.31142 23.5689L6.28951 23.6189L6.27287 23.6743L6.26179 23.7295L6.25072 23.7794L6.23958 23.8404L6.23407 23.8959L6.22888 23.9513V24.0124V24.0235V24.079L6.23407 24.1344L6.23958 24.1843L6.24515 24.2398L6.25622 24.2897L6.26736 24.3397L6.27844 24.3896L6.29508 24.4395L6.31142 24.4839L6.33363 24.5393L6.35578 24.5893L6.38319 24.6393L6.41091 24.6836L6.43863 24.728L6.47161 24.7724L6.5049 24.8112L6.54338 24.8501L6.57673 24.8889L6.61516 24.9221L6.65959 24.9554L6.70364 24.9887L6.74763 25.0164L6.792 25.0442L6.84168 25.0664L6.89125 25.0886L6.94112 25.1107L6.99631 25.1274L7.05144 25.144L7.10694 25.1552L7.16207 25.1662L7.2172 25.1718L7.2779 25.1773H7.3386H7.40481L7.46588 25.1718L7.52658 25.1662L7.58171 25.1607L7.63684 25.1495L7.69234 25.1385L7.74747 25.1219L7.79703 25.1107L7.84672 25.0886L7.89108 25.0664L7.94064 25.0442L7.97944 25.022L8.02356 24.9942V24.9388V24.8834V24.8278V24.7724V24.7113V24.6559V24.6004V24.545V24.4895H7.96837H7.91849H7.8633H7.80817H7.75304H7.70311H7.64791H7.59278H7.53765H7.48778H7.43259H7.37746H7.32227H7.2724H7.2172V24.434V24.3841V24.3286V24.2731V24.2176V24.1677V24.1123V24.0568V24.0013V23.9513V23.8959V23.8404V23.7849V23.735V23.6799H7.2724H7.32784H7.38303H7.4381H7.49329H7.54842H7.60392H7.65905H7.71418H7.76938H7.82482H7.87995H7.93508H7.99021H8.04571H8.1009H8.15603H8.21116H8.2666H8.32179H8.37693H8.43206H8.4875H8.54269H8.59782H8.65295H8.70845H8.76358H8.81878H8.87391H8.92934H8.98448H9.03967V23.735V23.7905V23.846V23.8959V23.9513V24.0068V24.0623V24.1178V24.1733V24.2231V24.2786V24.3341V24.3896V24.4451V24.5005V24.556V24.6059V24.6614V24.7169V24.7724V24.8278V24.8834V24.9388V24.9887V25.0442V25.0997V25.1552V25.2106V25.266V25.316V25.3715V25.4269V25.4824L9.00118 25.5157Z" fill="white"/>
<path d="M7.22517 12.8575H9.61868V11.0061H7.22517V7.22639H9.71397V5.37497H5.19264V18.7369H9.75184V16.8855H7.22517V12.8575Z" fill="white"/>
<path d="M24.3687 13.2585V16.2745C24.3687 16.809 24.1216 17.057 23.609 17.057H23.2289C22.697 17.057 22.45 16.809 22.45 16.2745V7.8371C22.45 7.30262 22.697 7.05463 23.2289 7.05463H23.5708C24.0838 7.05463 24.3308 7.30262 24.3308 7.8371V10.4525H26.3252V7.72256C26.3252 6.06203 25.5274 5.26025 23.875 5.26025H22.8869C21.2345 5.26025 20.4174 6.08096 20.4174 7.74181V16.3698C20.4174 18.0307 21.2345 18.8513 22.8869 18.8513H23.8939C25.5467 18.8513 26.3634 18.0307 26.3634 16.3698V13.2585H24.3687Z" fill="white"/>
<path d="M17.3105 18.7369H19.3434V5.37486H17.3105V18.7369Z" fill="white"/>
<path d="M14.3611 11.3114C14.3611 11.8459 14.1145 12.0942 13.6015 12.0942H12.7655V7.16924H13.6015C14.1145 7.16924 14.3611 7.4173 14.3611 7.95171V11.3114ZM13.9242 5.37487H10.7329V18.7369H12.7655V13.8882H13.9242C15.577 13.8882 16.3937 13.0676 16.3937 11.4071V7.85642C16.3937 6.19558 15.577 5.37487 13.9242 5.37487Z" fill="white"/>
<path fill-rule="evenodd" clip-rule="evenodd" d="M9.98795 30.8187H21.6238L15.6846 32.7773L9.98795 30.8187Z" fill="white"/>
</g>
<defs>
<clipPath id="clip0_3_225">
<rect width="30.0326" height="34.85" fill="white" transform="translate(0.761826 0.743752)"/>
</clipPath>
</defs>
</svg>
