<svg width="38" height="36" viewBox="0 0 38 36" fill="none" xmlns="http://www.w3.org/2000/svg">
<g clip-path="url(#clip0_3_139)">
<path d="M23.9302 17.3013L9.11898 14.6875V34.0005C9.11898 34.8825 9.83398 35.5975 10.716 35.5975H36.2732C37.1552 35.5975 37.8702 34.8825 37.8702 34.0005V26.885L23.9302 17.3013Z" fill="#185C37"/>
<path d="M23.9302 0.747498H10.716C9.83398 0.747498 9.11898 1.4625 9.11898 2.34449V9.46L23.9302 18.1725L31.7715 20.7862L37.8702 18.1725V9.46L23.9302 0.747498Z" fill="#21A366"/>
<path d="M9.11898 9.46001H23.9302V18.1725H9.11898V9.46001Z" fill="#107C41"/>
<path opacity="0.1" d="M19.7193 7.7175H9.11898V29.4987H19.7193C20.6001 29.4959 21.3134 28.7825 21.3163 27.9017V9.3145C21.3134 8.43369 20.6001 7.72036 19.7193 7.7175Z" fill="#80B485"/>
<path opacity="0.2" d="M18.8482 8.58873H9.11898V30.37H18.8482C19.729 30.3671 20.4424 29.6538 20.4452 28.773V10.1857C20.4424 9.30492 19.729 8.59159 18.8482 8.58873Z" fill="#80B485"/>
<path opacity="0.2" d="M18.8482 8.58873H9.11898V28.6275H18.8482C19.729 28.6246 20.4424 27.9113 20.4452 27.0305V10.1857C20.4424 9.30492 19.729 8.59159 18.8482 8.58873Z" fill="#80B485"/>
<path opacity="0.2" d="M17.977 8.58873H9.11898V28.6275H17.977C18.8578 28.6246 19.5711 27.9113 19.574 27.0305V10.1857C19.5711 9.30492 18.8578 8.59159 17.977 8.58873Z" fill="#80B485"/>
<path d="M2.00348 8.58873H17.977C18.859 8.58873 19.574 9.30373 19.574 10.1857V26.1592C19.574 27.0412 18.859 27.7562 17.977 27.7562H2.00348C1.12148 27.7562 0.406479 27.0412 0.406479 26.1592V10.1857C0.406479 9.30373 1.12148 8.58873 2.00348 8.58873Z" fill="url(#paint0_linear_3_139)"/>
<path d="M5.35285 23.3632L8.71239 18.1575L5.63427 12.9805H8.11035L9.79012 16.2913C9.94521 16.6058 10.0515 16.8393 10.109 16.9935H10.1308C10.2411 16.7426 10.3573 16.4989 10.4793 16.2625L12.2749 12.9823H14.548L11.3915 18.1288L14.6282 23.3632H12.2096L10.2693 19.7292C10.1779 19.5746 10.1004 19.4122 10.0376 19.244H10.0088C9.95198 19.4088 9.87657 19.5666 9.78403 19.7144L7.78626 23.3632H5.35285Z" fill="white"/>
<path d="M36.2731 0.747498H23.9301V9.46H37.8701V2.34449C37.8701 1.4625 37.1551 0.747498 36.2731 0.747498Z" fill="#33C481"/>
<path d="M23.9301 18.1725H37.8701V26.885H23.9301V18.1725Z" fill="#107C41"/>
</g>
<defs>
<linearGradient id="paint0_linear_3_139" x1="3.73626" y1="7.34087" x2="16.2442" y2="29.0041" gradientUnits="userSpaceOnUse">
<stop stop-color="#18884F"/>
<stop offset="0.5" stop-color="#117E43"/>
<stop offset="1" stop-color="#0B6631"/>
</linearGradient>
<clipPath id="clip0_3_139">
<rect width="37.4637" height="34.85" fill="white" transform="translate(0.406479 0.747498)"/>
</clipPath>
</defs>
</svg>
