<svg width="31" height="43" viewBox="0 0 31 43" fill="none" xmlns="http://www.w3.org/2000/svg">
<path d="M0.586243 42.7375H30.4577V9.28151L22.3924 0.917511H0.586243V42.7375Z" fill="white"/>
<path d="M25.6123 12.2687H5.43247C4.73564 12.2687 4.17123 12.8331 4.17123 13.53V33.7098C4.17123 34.4066 4.73564 34.971 5.43247 34.971H25.6123C26.3091 34.971 26.8735 34.4066 26.8735 33.7098V13.53C26.8735 12.8331 26.3091 12.2687 25.6123 12.2687Z" fill="url(#paint0_radial_3_338)"/>
<path d="M20.608 23.0302C19.8835 22.3056 18.713 22.2899 17.9689 22.9943L11.7384 28.8969V34.971H25.612C26.3088 34.971 26.8732 34.4066 26.8732 33.7098V29.2954L20.608 23.0302Z" fill="#436DCD"/>
<path d="M19.6215 19.8365C20.8405 19.8365 21.8287 18.8483 21.8287 17.6293C21.8287 16.4103 20.8405 15.4221 19.6215 15.4221C18.4025 15.4221 17.4144 16.4103 17.4144 17.6293C17.4144 18.8483 18.4025 19.8365 19.6215 19.8365Z" fill="white"/>
<path d="M5.4325 34.9708H25.6123C26.1238 34.9708 26.5627 34.6649 26.76 34.2266L13.0409 20.5075C12.3163 19.7829 11.1459 19.7672 10.4018 20.4716L4.17126 26.3742V33.7095C4.17126 34.4064 4.73567 34.9708 5.4325 34.9708Z" fill="url(#paint1_linear_3_338)"/>
<defs>
<radialGradient id="paint0_radial_3_338" cx="0" cy="0" r="1" gradientUnits="userSpaceOnUse" gradientTransform="translate(30.958 31.4869) scale(14.4677)">
<stop stop-color="#BD8AF5"/>
<stop offset="0.137" stop-color="#B88BF5"/>
<stop offset="0.309" stop-color="#A88FF3"/>
<stop offset="0.499" stop-color="#8F96F2"/>
<stop offset="0.702" stop-color="#6B9EEF"/>
<stop offset="0.913" stop-color="#3EAAEC"/>
<stop offset="1" stop-color="#29AFEA"/>
</radialGradient>
<linearGradient id="paint1_linear_3_338" x1="15.4657" y1="19.9198" x2="15.4657" y2="35.2325" gradientUnits="userSpaceOnUse">
<stop stop-color="#124787"/>
<stop offset="0.923" stop-color="#173B75"/>
<stop offset="1" stop-color="#173A73"/>
</linearGradient>
</defs>
</svg>
