<svg width="28" height="36" viewBox="0 0 28 36" fill="none" xmlns="http://www.w3.org/2000/svg">
<rect opacity="0.89" x="11.7746" y="32.4789" width="5.40845" height="2.70423" rx="1.35211" fill="#2F2F2F"/>
<g clip-path="url(#clip0_3_60)">
<path d="M24.9563 20.5146C24.6007 20.7005 24.2341 20.8644 23.8584 21.0052C22.6625 21.4527 21.3956 21.6806 20.1188 21.6781C15.1896 21.6781 10.8959 18.2875 10.8959 13.9365C10.9022 13.3529 11.0641 12.7816 11.365 12.2815C11.6658 11.7814 12.0947 11.3707 12.6073 11.0917C8.149 11.2792 7.00316 15.925 7.00316 18.6469C7.00316 26.3427 14.0959 27.1229 15.624 27.1229C16.448 27.1229 17.6907 26.8833 18.4365 26.6479L18.573 26.6021C21.443 25.6099 23.8897 23.6701 25.5105 21.1021C25.5601 21.0239 25.5823 20.9314 25.5734 20.8392C25.5646 20.7469 25.5253 20.6603 25.4618 20.5929C25.3982 20.5255 25.314 20.4812 25.2225 20.4671C25.1309 20.4529 25.0373 20.4696 24.9563 20.5146Z" fill="url(#paint0_linear_3_60)"/>
<path opacity="0.35" d="M24.9563 20.5146C24.6007 20.7005 24.2341 20.8644 23.8584 21.0052C22.6625 21.4527 21.3956 21.6806 20.1188 21.6781C15.1896 21.6781 10.8959 18.2875 10.8959 13.9365C10.9022 13.3529 11.0641 12.7816 11.365 12.2815C11.6658 11.7814 12.0947 11.3707 12.6073 11.0917C8.149 11.2792 7.00316 15.925 7.00316 18.6469C7.00316 26.3427 14.0959 27.1229 15.624 27.1229C16.448 27.1229 17.6907 26.8833 18.4365 26.6479L18.573 26.6021C21.443 25.6099 23.8897 23.6701 25.5105 21.1021C25.5601 21.0239 25.5823 20.9314 25.5734 20.8392C25.5646 20.7469 25.5253 20.6603 25.4618 20.5929C25.3982 20.5255 25.314 20.4812 25.2225 20.4671C25.1309 20.4529 25.0373 20.4696 24.9563 20.5146Z" fill="url(#paint1_radial_3_60)"/>
<path d="M11.9001 25.8144C10.971 25.2378 10.1658 24.4821 9.53139 23.5915C8.80825 22.6008 8.31063 21.4638 8.07343 20.2604C7.83623 19.0569 7.8652 17.8162 8.15829 16.6251C8.45139 15.4341 9.00152 14.3216 9.77011 13.3657C10.5387 12.4097 11.5071 11.6335 12.6074 11.0915C12.9324 10.9384 13.4876 10.6613 14.2262 10.6748C14.7465 10.6786 15.2589 10.8029 15.7232 11.0378C16.1874 11.2727 16.591 11.612 16.9022 12.029C17.3229 12.5907 17.5548 13.2711 17.5647 13.9728C17.5647 13.9509 20.1126 5.68109 9.23139 5.68109C4.65847 5.68109 0.898058 10.0207 0.898058 13.828C0.880021 15.842 1.31095 17.8347 2.15952 19.6613C3.54632 22.6202 5.97145 24.9669 8.9744 26.2556C11.9774 27.5443 15.349 27.6853 18.4491 26.6519C17.3636 26.9942 16.2169 27.0969 15.0878 26.953C13.9588 26.8092 12.8745 26.4221 11.9095 25.8186L11.9001 25.8144Z" fill="url(#paint2_linear_3_60)"/>
<path opacity="0.41" d="M11.9001 25.8144C10.971 25.2378 10.1658 24.4821 9.53139 23.5915C8.80825 22.6008 8.31063 21.4638 8.07343 20.2604C7.83623 19.0569 7.8652 17.8162 8.15829 16.6251C8.45139 15.4341 9.00152 14.3216 9.77011 13.3657C10.5387 12.4097 11.5071 11.6335 12.6074 11.0915C12.9324 10.9384 13.4876 10.6613 14.2262 10.6748C14.7465 10.6786 15.2589 10.8029 15.7232 11.0378C16.1874 11.2727 16.591 11.612 16.9022 12.029C17.3229 12.5907 17.5548 13.2711 17.5647 13.9728C17.5647 13.9509 20.1126 5.68109 9.23139 5.68109C4.65847 5.68109 0.898058 10.0207 0.898058 13.828C0.880021 15.842 1.31095 17.8347 2.15952 19.6613C3.54632 22.6202 5.97145 24.9669 8.9744 26.2556C11.9774 27.5443 15.349 27.6853 18.4491 26.6519C17.3636 26.9942 16.2169 27.0969 15.0878 26.953C13.9588 26.8092 12.8745 26.4221 11.9095 25.8186L11.9001 25.8144Z" fill="url(#paint3_radial_3_60)"/>
<path d="M16.7555 16.1728C16.6712 16.2822 16.4118 16.4333 16.4118 16.7624C16.4118 17.0343 16.5889 17.2958 16.9035 17.5156C18.4014 18.5572 21.2253 18.4197 21.2326 18.4197C22.3426 18.4171 23.4314 18.1167 24.3858 17.5499C25.3485 16.9878 26.1475 16.1837 26.7035 15.2175C27.2595 14.2512 27.5533 13.1564 27.5555 12.0416C27.5826 9.70722 26.7222 8.15514 26.3743 7.46764C24.167 3.14993 19.4024 0.666596 14.2212 0.666596C10.7172 0.666249 7.35392 2.04524 4.85876 4.50532C2.3636 6.96539 0.937117 10.3088 0.887842 13.8124C0.937842 10.0062 4.72117 6.93222 9.22117 6.93222C9.58576 6.93222 11.6649 6.96764 13.5962 7.98118C15.2983 8.87493 16.1899 9.95409 16.8097 11.0239C17.4535 12.1353 17.568 13.5395 17.568 14.0989C17.568 14.6583 17.2826 15.4874 16.7555 16.1728Z" fill="url(#paint4_radial_3_60)"/>
<path d="M16.7555 16.1728C16.6712 16.2822 16.4118 16.4333 16.4118 16.7624C16.4118 17.0343 16.5889 17.2958 16.9035 17.5156C18.4014 18.5572 21.2253 18.4197 21.2326 18.4197C22.3426 18.4171 23.4314 18.1167 24.3858 17.5499C25.3485 16.9878 26.1475 16.1837 26.7035 15.2175C27.2595 14.2512 27.5533 13.1564 27.5555 12.0416C27.5826 9.70722 26.7222 8.15514 26.3743 7.46764C24.167 3.14993 19.4024 0.666596 14.2212 0.666596C10.7172 0.666249 7.35392 2.04524 4.85876 4.50532C2.3636 6.96539 0.937117 10.3088 0.887842 13.8124C0.937842 10.0062 4.72117 6.93222 9.22117 6.93222C9.58576 6.93222 11.6649 6.96764 13.5962 7.98118C15.2983 8.87493 16.1899 9.95409 16.8097 11.0239C17.4535 12.1353 17.568 13.5395 17.568 14.0989C17.568 14.6583 17.2826 15.4874 16.7555 16.1728Z" fill="url(#paint5_radial_3_60)"/>
</g>
<defs>
<linearGradient id="paint0_linear_3_60" x1="7.00316" y1="19.1094" x2="25.5802" y2="19.1094" gradientUnits="userSpaceOnUse">
<stop stop-color="#0C59A4"/>
<stop offset="1" stop-color="#114A8B"/>
</linearGradient>
<radialGradient id="paint1_radial_3_60" cx="0" cy="0" r="1" gradientUnits="userSpaceOnUse" gradientTransform="translate(17.2636 19.2558) scale(9.93541 9.43865)">
<stop offset="0.72" stop-opacity="0"/>
<stop offset="0.95" stop-opacity="0.53"/>
<stop offset="1"/>
</radialGradient>
<linearGradient id="paint2_linear_3_60" x1="16.797" y1="11.0509" x2="5.19389" y2="23.6894" gradientUnits="userSpaceOnUse">
<stop stop-color="#1B9DE2"/>
<stop offset="0.16" stop-color="#1595DF"/>
<stop offset="0.67" stop-color="#0680D7"/>
<stop offset="1" stop-color="#0078D4"/>
</linearGradient>
<radialGradient id="paint3_radial_3_60" cx="0" cy="0" r="1" gradientUnits="userSpaceOnUse" gradientTransform="translate(8.24019 21.3965) rotate(-81.3844) scale(14.9402 12.0702)">
<stop offset="0.76" stop-opacity="0"/>
<stop offset="0.95" stop-opacity="0.5"/>
<stop offset="1"/>
</radialGradient>
<radialGradient id="paint4_radial_3_60" cx="0" cy="0" r="1" gradientUnits="userSpaceOnUse" gradientTransform="translate(3.58185 5.60168) rotate(92.2906) scale(21.1033 44.9457)">
<stop stop-color="#35C1F1"/>
<stop offset="0.11" stop-color="#34C1ED"/>
<stop offset="0.23" stop-color="#2FC2DF"/>
<stop offset="0.31" stop-color="#2BC3D2"/>
<stop offset="0.67" stop-color="#36C752"/>
</radialGradient>
<radialGradient id="paint5_radial_3_60" cx="0" cy="0" r="1" gradientUnits="userSpaceOnUse" gradientTransform="translate(25.8954 8.72973) rotate(73.7398) scale(10.1396 8.24551)">
<stop stop-color="#66EB6E"/>
<stop offset="1" stop-color="#66EB6E" stop-opacity="0"/>
</radialGradient>
<clipPath id="clip0_3_60">
<rect width="26.6667" height="26.6667" fill="white" transform="translate(0.888794 0.666595)"/>
</clipPath>
</defs>
</svg>
