<svg width="36" height="36" viewBox="0 0 36 36" fill="none" xmlns="http://www.w3.org/2000/svg">
<g clip-path="url(#clip0_3_193)">
<g clip-path="url(#clip1_3_193)">
<path d="M27.6921 9.5721V8.78997C27.6921 6.66647 26.6812 4.67203 24.9702 3.41474C25.8404 4.56839 26.3097 5.97428 26.3077 7.41928V9.5721H24.9194V7.41928C24.9214 3.73346 21.9316 0.743752 18.2458 0.743752C14.56 0.743752 11.5683 3.73346 11.5683 7.41928V9.5721H0.704376V33.0499C0.704376 34.4538 1.84239 35.5938 3.24828 35.5938H33.2433C34.6473 35.5938 35.7872 34.4557 35.7872 33.0499V9.5721H27.6921ZM12.9527 7.41928C12.9507 4.498 15.3186 2.12813 18.2419 2.12813H18.2458C21.1417 2.1907 23.4744 4.52342 23.5389 7.42123V9.57406H15.7234V8.79192C15.7214 5.87065 18.0894 3.50078 21.0126 3.49882H21.0165C21.261 3.49882 21.5034 3.51642 21.7439 3.55357C21.0811 3.24854 20.3615 3.09016 19.6321 3.0882C17.9212 3.08625 16.3139 3.91531 15.3226 5.30947C14.6792 6.35753 14.339 7.56202 14.341 8.78997V9.5721H12.9527V7.41928Z" fill="#2F2D2E"/>
<path d="M17.6781 15.2231H10.8892V22.0139H17.6781V15.2231Z" fill="#F25022"/>
<path d="M25.5997 15.2231H18.8107V22.0139H25.5997V15.2231Z" fill="#7FBA00"/>
<path d="M17.6781 23.1441H10.8892V29.933H17.6781V23.1441Z" fill="#00A4EF"/>
<path d="M25.5997 23.1441H18.8107V29.933H25.5997V23.1441Z" fill="#FFB900"/>
</g>
</g>
<defs>
<clipPath id="clip0_3_193">
<rect width="34.85" height="34.85" fill="white" transform="translate(0.704376 0.743752)"/>
</clipPath>
<clipPath id="clip1_3_193">
<rect width="35.0807" height="34.85" fill="white" transform="translate(0.704376 0.743752)"/>
</clipPath>
</defs>
</svg>
