<svg width="35" height="36" viewBox="0 0 35 36" fill="none" xmlns="http://www.w3.org/2000/svg">
<g clip-path="url(#clip0_3_255)">
<path d="M31.6913 0.482502H3.25115C1.48113 0.482502 0.0462494 1.91738 0.0462494 3.6874V32.1276C0.0462494 33.8976 1.48113 35.3325 3.25115 35.3325H31.6913C33.4614 35.3325 34.8962 33.8976 34.8962 32.1276V3.6874C34.8962 1.91738 33.4614 0.482502 31.6913 0.482502Z" fill="black"/>
<path fill-rule="evenodd" clip-rule="evenodd" d="M19.3402 6.10343L19.3311 11.3276L19.3218 16.5518L18.892 15.3391C18.8919 15.3386 18.8913 15.3371 18.8912 15.3367L18.3358 26.9671C18.8819 28.5092 19.1744 29.3325 19.1777 29.3358C19.182 29.3401 19.4932 29.3588 19.8693 29.3775C21.0086 29.434 22.4205 29.5552 23.4916 29.6883C23.7396 29.7191 23.953 29.7349 23.9659 29.7233C23.9787 29.7118 23.9857 24.3926 23.9814 17.9029L23.9736 6.10343H21.6569H19.3402Z" fill="#B1060F" stroke="black" stroke-width="0.0714889"/>
<path fill-rule="evenodd" clip-rule="evenodd" d="M10.9604 6.08788V17.8993C10.9604 24.3956 10.9667 29.7172 10.9745 29.7249C10.9823 29.7327 11.3846 29.6947 11.8685 29.6405C12.3525 29.5863 13.0213 29.5189 13.3548 29.4908C13.8663 29.4476 15.3935 29.3494 15.5703 29.3483C15.6218 29.348 15.6251 29.0826 15.6325 24.3455L15.6404 19.343L16.0099 20.3885C16.067 20.5501 16.0849 20.6005 16.1406 20.758L16.6958 9.13037C16.5782 8.79774 16.6398 8.97235 16.505 8.59114C16.0513 7.30842 15.6664 6.22043 15.6495 6.1734L15.6188 6.08788H13.2896H10.9604Z" fill="#B1060F" stroke="black" stroke-width="0.0714889"/>
<path fill-rule="evenodd" clip-rule="evenodd" d="M10.9604 6.08788V12.718L15.631 25.1074C15.6315 24.8235 15.632 24.6701 15.6325 24.3455L15.6404 19.343L16.0099 20.3885C18.0668 26.2087 19.1718 29.3293 19.1783 29.3358C19.1826 29.3401 19.4938 29.3588 19.8699 29.3775C21.0093 29.434 22.4212 29.5552 23.4922 29.6883C23.7402 29.7191 23.9537 29.7349 23.9665 29.7233C23.9753 29.7154 23.9811 27.1073 23.9826 23.428L19.3339 10.0629L19.3317 11.3276L19.3225 16.5518L18.8926 15.3391C18.4727 14.1541 18.1923 13.3616 16.505 8.59114C16.0513 7.30842 15.6664 6.22043 15.6495 6.1734L15.6188 6.08788H13.2896H10.9604H10.9604Z" fill="url(#paint0_radial_3_255)"/>
<path fill-rule="evenodd" clip-rule="evenodd" d="M10.9607 6.08788L15.6406 19.349V19.343L16.0101 20.3885C18.067 26.2086 19.1721 29.3293 19.1786 29.3357C19.1829 29.34 19.4941 29.3588 19.8701 29.3775C21.0095 29.434 22.4214 29.5552 23.4925 29.6883C23.7392 29.7189 23.9515 29.7347 23.9663 29.7235L19.3227 16.5494V16.5518L18.8929 15.3391C18.4729 14.1541 18.1925 13.3616 16.5052 8.59114C16.0516 7.30841 15.6666 6.22043 15.6497 6.17339L15.619 6.08788H13.2898H10.9607V6.08788Z" fill="#E50914"/>
<path fill-rule="evenodd" clip-rule="evenodd" d="M19.3402 6.10343L19.3311 11.3276L19.3218 16.5518L18.892 15.3391C18.8919 15.3386 18.8913 15.3371 18.8912 15.3367L18.3358 26.9671C18.8819 28.5092 19.1744 29.3325 19.1777 29.3358C19.182 29.3401 19.4932 29.3588 19.8693 29.3775C21.0086 29.434 22.4205 29.5552 23.4916 29.6883C23.7396 29.7191 23.953 29.7349 23.9659 29.7233C23.9787 29.7118 23.9857 24.3926 23.9814 17.9029L23.9736 6.10343H21.6569H19.3402Z" fill="#B1060F" stroke="black" stroke-width="0.0714889"/>
<path fill-rule="evenodd" clip-rule="evenodd" d="M10.9604 6.08788V17.8993C10.9604 24.3956 10.9667 29.7172 10.9745 29.7249C10.9823 29.7327 11.3846 29.6947 11.8685 29.6405C12.3525 29.5863 13.0213 29.5189 13.3548 29.4908C13.8663 29.4476 15.3935 29.3494 15.5703 29.3483C15.6218 29.348 15.6251 29.0826 15.6325 24.3455L15.6404 19.343L16.0099 20.3885C16.067 20.5501 16.0849 20.6005 16.1406 20.758L16.6958 9.13037C16.5782 8.79774 16.6398 8.97235 16.505 8.59114C16.0513 7.30842 15.6664 6.22043 15.6495 6.1734L15.6188 6.08788H13.2896H10.9604Z" fill="#B1060F" stroke="black" stroke-width="0.0714889"/>
<path fill-rule="evenodd" clip-rule="evenodd" d="M10.9604 6.08788V12.718L15.631 25.1074C15.6315 24.8235 15.632 24.6701 15.6325 24.3455L15.6404 19.343L16.0099 20.3885C18.0668 26.2087 19.1718 29.3293 19.1783 29.3358C19.1826 29.3401 19.4938 29.3588 19.8699 29.3775C21.0093 29.434 22.4212 29.5552 23.4922 29.6883C23.7402 29.7191 23.9537 29.7349 23.9665 29.7233C23.9753 29.7154 23.9811 27.1073 23.9826 23.428L19.3339 10.0629L19.3317 11.3276L19.3225 16.5518L18.8926 15.3391C18.4727 14.1541 18.1923 13.3616 16.505 8.59114C16.0513 7.30842 15.6664 6.22043 15.6495 6.1734L15.6188 6.08788H13.2896H10.9604H10.9604Z" fill="url(#paint1_radial_3_255)"/>
<path fill-rule="evenodd" clip-rule="evenodd" d="M10.9607 6.08788L15.6406 19.349V19.343L16.0101 20.3885C18.067 26.2086 19.1721 29.3293 19.1786 29.3357C19.1829 29.34 19.4941 29.3588 19.8701 29.3775C21.0095 29.434 22.4214 29.5552 23.4925 29.6883C23.7392 29.7189 23.9515 29.7347 23.9663 29.7235L19.3227 16.5494V16.5518L18.8929 15.3391C18.4729 14.1541 18.1925 13.3616 16.5052 8.59114C16.0516 7.30841 15.6666 6.22043 15.6497 6.17339L15.619 6.08788H13.2898H10.9607V6.08788Z" fill="#E50914"/>
</g>
<defs>
<radialGradient id="paint0_radial_3_255" cx="0" cy="0" r="1" gradientUnits="userSpaceOnUse" gradientTransform="translate(17.2553 17.7701) rotate(-19.0982) scale(2.95156 108.113)">
<stop/>
<stop offset="1" stop-opacity="0"/>
</radialGradient>
<radialGradient id="paint1_radial_3_255" cx="0" cy="0" r="1" gradientUnits="userSpaceOnUse" gradientTransform="translate(17.2553 17.7701) rotate(-19.0982) scale(2.95156 108.113)">
<stop/>
<stop offset="1" stop-opacity="0"/>
</radialGradient>
<clipPath id="clip0_3_255">
<rect width="34.85" height="34.85" fill="white" transform="translate(0.0462494 0.4825)"/>
</clipPath>
</defs>
</svg>
