<svg width="38" height="36" viewBox="0 0 38 36" fill="none" xmlns="http://www.w3.org/2000/svg">
<g clip-path="url(#clip0_3_153)">
<path d="M23.1808 19.9149L20.567 0.747498H20.3719C10.8676 0.775245 3.16979 8.47304 3.14204 17.9773V18.1724L23.1808 19.9149Z" fill="#ED6C47"/>
<path d="M20.7622 0.747498H20.567V18.1725L29.2795 21.6575L37.992 18.1725V17.9773C37.9643 8.47307 30.2664 0.775245 20.7622 0.747498Z" fill="#FF8F6B"/>
<path d="M37.992 18.1725V18.3642C37.9648 27.8706 30.2651 35.5702 20.7587 35.5975H20.3754C10.869 35.5702 3.16932 27.8706 3.14204 18.3642V18.1725H37.992Z" fill="#D35230"/>
<path opacity="0.1" d="M21.4383 9.31193V27.9044C21.4339 28.5505 21.0424 29.1308 20.445 29.3768C20.2548 29.4573 20.0504 29.4987 19.8439 29.4988H7.25432C7.01037 29.22 6.77514 28.9238 6.55732 28.6275C4.33763 25.6665 3.13913 22.0649 3.14202 18.3642V17.9809C3.13693 14.6429 4.11245 11.3771 5.94744 8.58878C6.13912 8.29255 6.3395 7.99633 6.55732 7.71753H19.8439C20.7217 7.72418 21.4316 8.43414 21.4383 9.31193Z" fill="black"/>
<path opacity="0.2" d="M20.567 10.183V28.7755C20.567 28.982 20.5255 29.1864 20.445 29.3766C20.1991 29.974 19.6187 30.3655 18.9726 30.3699H8.04715C7.77149 30.09 7.507 29.7994 7.25431 29.4986C7.01036 29.2198 6.77513 28.9236 6.55731 28.6274C4.33762 25.6663 3.13912 22.0647 3.14201 18.364V17.9807C3.13691 14.6428 4.11244 11.3769 5.94743 8.58861H18.9726C19.8504 8.59524 20.5604 9.3052 20.567 10.183Z" fill="black"/>
<path opacity="0.2" d="M20.567 10.183V27.033C20.5604 27.9108 19.8504 28.6208 18.9726 28.6274H6.55732C4.33763 25.6664 3.13913 22.0648 3.14202 18.3641V17.9807C3.13693 14.6428 4.11245 11.3769 5.94744 8.58867H18.9726C19.8504 8.59528 20.5604 9.30524 20.567 10.183Z" fill="black"/>
<path opacity="0.2" d="M19.6958 10.183V27.033C19.6891 27.9108 18.9792 28.6208 18.1014 28.6274H6.55732C4.33763 25.6664 3.13913 22.0648 3.14202 18.3641V17.9807C3.13693 14.6428 4.11245 11.3769 5.94744 8.58867H18.1014C18.9792 8.59528 19.6891 9.30524 19.6958 10.183Z" fill="black"/>
<path d="M2.12564 8.58861H18.0992C18.9812 8.58861 19.6962 9.30362 19.6962 10.1856V26.1591C19.6962 27.0411 18.9812 27.7561 18.0992 27.7561H2.12564C1.24365 27.7561 0.528637 27.0411 0.528637 26.1591V10.1856C0.528637 9.30362 1.24365 8.58861 2.12564 8.58861Z" fill="url(#paint0_linear_3_153)"/>
<path d="M10.2871 12.8483C11.3269 12.7781 12.3578 13.0802 13.1953 13.7004C13.8939 14.324 14.2671 15.2341 14.2077 16.1686C14.2191 16.8183 14.046 17.4579 13.7085 18.0131C13.3668 18.5587 12.8745 18.9938 12.291 19.2659C11.6239 19.5762 10.8946 19.7294 10.159 19.7138H8.13861V23.4688H6.0694V12.8483H10.2871ZM8.13688 18.0915H9.91771C10.4823 18.133 11.0424 17.9659 11.4921 17.6219C11.8639 17.2652 12.0588 16.7621 12.0244 16.2479C12.0244 15.0775 11.3442 14.4924 9.98393 14.4924H8.1369V18.0915H8.13688Z" fill="white"/>
</g>
<defs>
<linearGradient id="paint0_linear_3_153" x1="3.85843" y1="7.34074" x2="16.3664" y2="29.004" gradientUnits="userSpaceOnUse">
<stop stop-color="#CA4C28"/>
<stop offset="0.5" stop-color="#C5401E"/>
<stop offset="1" stop-color="#B62F14"/>
</linearGradient>
<clipPath id="clip0_3_153">
<rect width="37.4637" height="34.85" fill="white" transform="translate(0.528637 0.747498)"/>
</clipPath>
</defs>
</svg>
