<svg width="35" height="36" viewBox="0 0 35 36" fill="none" xmlns="http://www.w3.org/2000/svg">
<path d="M17.5192 26.522C22.1305 26.522 25.8687 22.7838 25.8687 18.1725C25.8687 13.5612 22.1305 9.82303 17.5192 9.82303C12.908 9.82303 9.16977 13.5612 9.16977 18.1725C9.16977 22.7838 12.908 26.522 17.5192 26.522Z" fill="url(#paint0_linear_3_186)"/>
<path d="M17.5192 23.2548C20.3261 23.2548 22.6015 20.9794 22.6015 18.1725C22.6015 15.3656 20.3261 13.0902 17.5192 13.0902C14.7124 13.0902 12.437 15.3656 12.437 18.1725C12.437 20.9794 14.7124 23.2548 17.5192 23.2548Z" fill="url(#paint1_linear_3_186)"/>
<path d="M31.6095 14.7187C29.875 14.6976 28.1956 13.7937 27.2656 12.1826C26.3704 10.6318 26.3885 8.80727 27.1479 7.32324C25.6051 5.9532 23.7777 4.89899 21.7535 4.28258C20.8423 5.65262 19.2871 6.55581 17.5192 6.55581C15.7513 6.55581 14.1961 5.65262 13.2856 4.28258C11.2614 4.89899 9.43397 5.9532 7.89113 7.32324C8.65057 8.80727 8.66872 10.6318 7.77351 12.1826C6.84345 13.7937 5.16412 14.6976 3.42961 14.7187C3.15807 15.8274 2.99834 16.9803 2.99834 18.1725C2.99834 19.1047 3.0949 20.013 3.26262 20.8966C5.05521 20.8596 6.81369 21.7737 7.77351 23.4363C8.76674 25.157 8.63533 27.2146 7.61379 28.7691C9.1254 30.1827 10.934 31.2783 12.9429 31.9455C13.7634 30.2422 15.5015 29.0631 17.5192 29.0631C19.5368 29.0631 21.275 30.2422 22.0954 31.9462C24.1044 31.279 25.9129 30.1834 27.4246 28.7698C26.403 27.2153 26.2716 25.1577 27.2648 23.437C28.2247 21.7744 29.9824 20.8603 31.7757 20.8973C31.9435 20.013 32.04 19.1047 32.04 18.1725C32.04 16.9803 31.8803 15.8274 31.6095 14.7187ZM17.5192 25.7959C13.3089 25.7959 9.89573 22.3828 9.89573 18.1725C9.89573 13.9622 13.3089 10.549 17.5192 10.549C21.7295 10.549 25.1426 13.9622 25.1426 18.1725C25.1426 22.3828 21.7295 25.7959 17.5192 25.7959Z" fill="url(#paint2_linear_3_186)"/>
<defs>
<linearGradient id="paint0_linear_3_186" x1="23.3363" y1="23.9895" x2="11.6245" y2="12.2778" gradientUnits="userSpaceOnUse">
<stop stop-color="white"/>
<stop offset="0.242" stop-color="#F2F2F2"/>
<stop offset="1" stop-color="#CCCCCC"/>
</linearGradient>
<linearGradient id="paint1_linear_3_186" x1="12.7637" y1="13.4169" x2="21.1059" y2="21.7591" gradientUnits="userSpaceOnUse">
<stop stop-color="#0D61A9"/>
<stop offset="0.363" stop-color="#0E5FA4"/>
<stop offset="0.78" stop-color="#135796"/>
<stop offset="1" stop-color="#16528C"/>
</linearGradient>
<linearGradient id="paint2_linear_3_186" x1="3.96107" y1="4.62745" x2="27.7433" y2="28.4089" gradientUnits="userSpaceOnUse">
<stop stop-color="#889097"/>
<stop offset="0.331" stop-color="#848C94"/>
<stop offset="0.669" stop-color="#78828B"/>
<stop offset="1" stop-color="#64717C"/>
</linearGradient>
</defs>
</svg>
