<svg width="36" height="36" viewBox="0 0 36 36" fill="none" xmlns="http://www.w3.org/2000/svg">
<path d="M23.5146 26.9662L10.1764 30.4875C9.40102 30.6922 8.60673 30.2297 8.40199 29.4543L3.39811 10.501C3.19337 9.7256 3.65585 8.93131 4.43127 8.72657L17.7694 5.20527C18.5448 5.00052 19.3391 5.46301 19.5438 6.23842L24.5477 25.1925C24.7525 25.9671 24.29 26.7614 23.5146 26.9662Z" fill="url(#paint0_linear_3_206)"/>
<path opacity="0.05" d="M19.5436 6.23842C19.3389 5.46301 18.5446 5.00052 17.7692 5.20527L8.18036 7.73625V26.1552C8.18036 27.7569 9.48288 29.0594 11.0845 29.0594H15.5867L23.5136 26.9662C24.2891 26.7614 24.7515 25.9672 24.5468 25.1917L19.5436 6.23842Z" fill="black"/>
<path opacity="0.07" d="M19.5437 6.23842C19.339 5.46301 18.5447 5.00052 17.7693 5.20527L8.90649 7.54457V26.1552C8.90649 27.3568 9.88302 28.3333 11.0846 28.3333H18.337L23.5145 26.9662C24.2899 26.7615 24.7524 25.9672 24.5476 25.1917L19.5437 6.23842Z" fill="black"/>
<path d="M24.8794 27.6073H11.0846C10.2823 27.6073 9.63251 26.9575 9.63251 26.1552V6.55208C9.63251 5.74981 10.2823 5.1 11.0846 5.1H24.8794C25.6817 5.1 26.3315 5.74981 26.3315 6.55208V26.1552C26.3315 26.9575 25.6817 27.6073 24.8794 27.6073Z" fill="url(#paint1_linear_3_206)"/>
<path opacity="0.05" d="M24.8792 5.1H16.0062C15.9271 5.26263 15.8588 5.43253 15.8109 5.61186L10.7439 24.5485C10.4309 25.7181 10.8833 26.9132 11.7901 27.6066H24.8792C25.6814 27.6066 26.3312 26.9568 26.3312 26.1545V6.55208C26.3312 5.74981 25.6814 5.1 24.8792 5.1Z" fill="black"/>
<path opacity="0.07" d="M17.7613 5.1C16.498 5.1 16.4319 6.12807 16.2504 6.78078L11.6103 24.123C11.5544 24.3321 11.383 25.1569 11.4179 25.358C11.3772 26.1051 11.8041 26.829 12.483 27.1557L16.1066 27.6073H24.8794C25.6374 27.6073 26.2589 27.0243 26.3199 26.2844C26.3279 26.2423 26.3315 26.0688 26.3315 26.0245V7.74569C26.3315 7.34492 26.0062 6.01191 25.6055 6.01191L17.7613 5.1Z" fill="black"/>
<path d="M26.5004 30.2682L13.1746 26.7026C12.3999 26.4957 11.9396 25.6993 12.1472 24.9246L17.2143 5.98722C17.4212 5.21254 18.2177 4.75222 18.9924 4.95987L32.3181 8.52546C33.0928 8.73238 33.5531 9.52885 33.3455 10.3035L28.2784 29.2409C28.0715 30.0148 27.275 30.4752 26.5004 30.2682Z" fill="url(#paint2_linear_3_206)"/>
<path d="M22.052 18.5935C21.2919 21.3967 19.3207 23.1189 19.3207 23.1189C19.3207 23.1189 20.9122 22.798 22.1239 23.8791C22.1232 23.8791 21.2919 21.3967 22.052 18.5935Z" fill="black"/>
<path d="M23.7619 12.287C21.6004 14.7098 17.9063 14.4608 17.0518 17.614C16.6844 18.9688 17.4845 20.3643 18.8393 20.7316C20.5876 21.2057 21.7667 19.6448 21.7667 19.6448C21.7667 19.6448 21.991 21.5862 23.7444 22.0617C25.0992 22.4291 26.4947 21.629 26.8621 20.2742C27.7166 17.1203 24.403 15.47 23.7619 12.287Z" fill="black"/>
<path d="M19.5083 8.55444C19.2912 9.35526 18.7278 9.84752 18.7278 9.84752C18.7278 9.84752 19.1823 9.75604 19.5287 10.0646C19.5287 10.0646 19.2912 9.35526 19.5083 8.55444Z" fill="black"/>
<path d="M19.9968 6.75248C19.3789 7.4444 18.324 7.37325 18.0793 8.27427C17.974 8.66125 18.2027 9.05984 18.5897 9.16512C19.0892 9.30089 19.4261 8.85437 19.4261 8.85437C19.4261 8.85437 19.49 9.40907 19.991 9.54484C20.3779 9.65011 20.7765 9.42141 20.8818 9.03443C21.1272 8.13341 20.1805 7.66221 19.9968 6.75248Z" fill="black"/>
<path d="M25.8392 26.821C25.6221 27.6218 25.0587 28.1141 25.0587 28.1141C25.0587 28.1141 25.5132 28.0226 25.8595 28.3311C25.8595 28.3304 25.6221 27.6218 25.8392 26.821Z" fill="black"/>
<path d="M26.3278 25.0189C25.7099 25.7108 24.655 25.6397 24.4103 26.5407C24.3051 26.9277 24.5338 27.3263 24.9207 27.4315C25.4203 27.5673 25.7571 27.1208 25.7571 27.1208C25.7571 27.1208 25.821 27.6755 26.322 27.8112C26.709 27.9165 27.1076 27.6878 27.2129 27.3008C27.4575 26.3998 26.5108 25.9279 26.3278 25.0189Z" fill="black"/>
<defs>
<linearGradient id="paint0_linear_3_206" x1="-1.19132" y1="9.01629" x2="25.4093" y2="24.5038" gradientUnits="userSpaceOnUse">
<stop stop-color="#0D61A9"/>
<stop offset="1" stop-color="#16528C"/>
</linearGradient>
<linearGradient id="paint1_linear_3_206" x1="5.57393" y1="3.94559" x2="27.3392" y2="25.7109" gradientUnits="userSpaceOnUse">
<stop stop-color="#32BDEF"/>
<stop offset="1" stop-color="#1EA2E4"/>
</linearGradient>
<linearGradient id="paint2_linear_3_206" x1="13.967" y1="2.42055" x2="29.3648" y2="29.0732" gradientUnits="userSpaceOnUse">
<stop stop-color="#F0F0F0"/>
<stop offset="1" stop-color="#BBC1C4"/>
</linearGradient>
</defs>
</svg>
