<svg width="38" height="36" viewBox="0 0 38 36" fill="none" xmlns="http://www.w3.org/2000/svg">
<g clip-path="url(#clip0_3_126)">
<path d="M36.0417 0.747498H10.4845C9.6025 0.747498 8.8875 1.4625 8.8875 2.3445V9.46L23.6987 13.8162L37.6387 9.46V2.3445C37.6387 1.4625 36.9237 0.747498 36.0417 0.747498Z" fill="#41A5EE"/>
<path d="M37.6387 9.46001H8.8875V18.1725L23.6987 20.7863L37.6387 18.1725V9.46001Z" fill="#2B7CD3"/>
<path d="M8.8875 18.1725V26.885L22.8275 28.6275L37.6387 26.885V18.1725H8.8875Z" fill="#185ABD"/>
<path d="M10.4845 35.5975H36.0419C36.9239 35.5975 37.6389 34.8825 37.6389 34.0005V26.885H8.8875V34.0005C8.8875 34.8825 9.6025 35.5975 10.4845 35.5975Z" fill="#103F91"/>
<path opacity="0.1" d="M19.488 7.7175H8.8875V29.4987H19.488C20.3688 29.4959 21.0821 28.7825 21.085 27.9017V9.3145C21.0821 8.4337 20.3688 7.72037 19.488 7.7175Z" fill="#808CB4"/>
<path opacity="0.2" d="M18.6167 8.58873H8.8875V30.37H18.6167C19.4975 30.3671 20.2108 29.6538 20.2137 28.773V10.1857C20.2108 9.30493 19.4975 8.5916 18.6167 8.58873Z" fill="#808CB4"/>
<path opacity="0.2" d="M18.6167 8.58873H8.8875V28.6275H18.6167C19.4975 28.6246 20.2108 27.9113 20.2137 27.0305V10.1857C20.2108 9.30493 19.4975 8.5916 18.6167 8.58873Z" fill="#808CB4"/>
<path opacity="0.2" d="M17.7455 8.58873H8.8875V28.6275H17.7455C18.6263 28.6246 19.3396 27.9113 19.3425 27.0305V10.1857C19.3396 9.30493 18.6263 8.5916 17.7455 8.58873Z" fill="#808CB4"/>
<path d="M1.77201 8.58873H17.7455C18.6275 8.58873 19.3425 9.30373 19.3425 10.1857V26.1593C19.3425 27.0413 18.6275 27.7563 17.7455 27.7563H1.77201C0.890005 27.7563 0.175003 27.0413 0.175003 26.1593V10.1857C0.175003 9.30373 0.890005 8.58873 1.77201 8.58873Z" fill="url(#paint0_linear_3_126)"/>
<path d="M6.72865 20.8368C6.76001 21.0833 6.78092 21.2977 6.7905 21.4815H6.82708C6.84102 21.3073 6.87006 21.0973 6.91421 20.8516C6.95836 20.6059 6.99815 20.3983 7.03357 20.2287L8.71334 12.9815H10.8854L12.6279 20.1197C12.7291 20.5636 12.8016 21.0135 12.8448 21.4667H12.8736C12.9061 21.0276 12.9666 20.5911 13.0548 20.1598L14.4444 12.978H16.4213L13.9801 23.3634H11.6704L10.015 16.4857C9.96709 16.2879 9.9122 16.0292 9.85208 15.7112C9.79196 15.3931 9.7545 15.1605 9.73969 15.0142H9.71093C9.69177 15.1832 9.65429 15.4341 9.59853 15.7669C9.54277 16.0998 9.49805 16.346 9.46435 16.5058L7.90829 23.3617H5.5594L3.1051 12.9815H5.11768L6.63105 20.2434C6.66504 20.3924 6.69728 20.5911 6.72865 20.8368Z" fill="white"/>
</g>
<defs>
<linearGradient id="paint0_linear_3_126" x1="3.50478" y1="7.34087" x2="16.0127" y2="29.0041" gradientUnits="userSpaceOnUse">
<stop stop-color="#2368C4"/>
<stop offset="0.5" stop-color="#1A5DBE"/>
<stop offset="1" stop-color="#1146AC"/>
</linearGradient>
<clipPath id="clip0_3_126">
<rect width="37.4637" height="34.85" fill="white" transform="translate(0.175003 0.747498)"/>
</clipPath>
</defs>
</svg>
