<svg width="35" height="36" viewBox="0 0 35 36" fill="none" xmlns="http://www.w3.org/2000/svg">
<g clip-path="url(#clip0_3_202)">
<path d="M7.94663 3.82244C7.93092 3.83291 7.91521 3.84862 7.8995 3.86433C7.99899 3.75961 8.14035 3.64966 8.22936 3.58683C10.9311 1.83281 14.0517 0.895584 17.5126 0.895584C20.7483 0.895584 23.7799 1.79092 26.3664 3.34598C26.5549 3.45593 27.0681 3.80673 27.3298 4.12612C24.8323 1.37205 17.4916 7.28336 17.4916 7.28336C14.9575 5.32514 12.6223 3.98999 10.884 3.51352C9.42838 3.1156 8.42309 3.45069 7.94663 3.82244ZM30.1572 6.42467C30.0839 6.3409 30.0001 6.26236 29.9216 6.17335C29.2933 5.48221 28.5184 5.31467 27.8168 5.35655C27.178 5.56075 24.2354 6.6184 20.6122 10.0427C20.6122 10.0427 24.691 14.0115 27.1937 18.0693C29.6912 22.1271 31.1835 25.3157 30.2672 29.74C33.0527 26.6771 34.7491 22.6088 34.7491 18.1373C34.7491 13.6188 33.0108 9.49813 30.1572 6.42467ZM23.9265 19.8023C22.8218 18.5562 21.1725 16.7812 18.9996 14.6136C18.5231 14.1424 18.0205 13.6502 17.4916 13.1371C17.4916 13.1371 16.6958 13.9329 15.6643 14.9801V14.9749C14.3396 16.3152 12.6223 18.0588 11.6693 19.0798C9.97291 20.8914 5.10878 26.5776 4.83652 29.7662C4.83652 29.7662 3.75269 27.2373 6.12978 21.4045C7.6796 17.5876 12.3657 11.8648 14.3239 9.99554C14.3239 9.99554 12.5333 8.03209 10.2923 6.67076L10.2766 6.66552C10.2766 6.66552 10.2504 6.64458 10.2138 6.62364C9.13517 5.97962 7.95186 5.48221 6.82091 5.41415C5.66378 5.49792 4.93076 6.34614 4.93076 6.34614C2.03532 9.43007 0.265594 13.5769 0.265594 18.1426C0.265594 27.6666 7.98328 35.3843 17.5126 35.3843C22.5652 35.3843 27.1099 33.2062 30.2672 29.74C30.2672 29.7348 29.9059 27.4624 27.5864 24.2005C27.0366 23.436 25.047 21.0537 23.9265 19.8023Z" fill="#2F2F2F"/>
</g>
<defs>
<clipPath id="clip0_3_202">
<rect width="34.85" height="34.85" fill="white" transform="translate(0.082489 0.743752)"/>
</clipPath>
</defs>
</svg>
